<?xml version="1.0" standalone="no"?>
<!DOCTYPE svg PUBLIC "-//W3C//DTD SVG 1.1//EN" "http://www.w3.org/Graphics/SVG/1.1/DTD/svg11.dtd" >
<svg xmlns="http://www.w3.org/2000/svg" xmlns:xlink="http://www.w3.org/1999/xlink" version="1.1">
<metadata></metadata>
<defs>
<font id="springfield_cartoonregular" horiz-adv-x="876" >
<font-face units-per-em="2048" ascent="1284" descent="-764" />
<missing-glyph horiz-adv-x="614" />
<glyph horiz-adv-x="0" />
<glyph unicode="&#xd;" horiz-adv-x="0" />
<glyph horiz-adv-x="0" />
<glyph horiz-adv-x="0" />
<glyph unicode=" "  horiz-adv-x="614" />
<glyph unicode="&#x09;" horiz-adv-x="614" />
<glyph unicode="&#xa0;" horiz-adv-x="614" />
<glyph unicode="!" horiz-adv-x="348" d="M82 86q4 16 7 35.5t38 50.5q25 23 52.5 19.5t45.5 -9.5q16 -4 24.5 -22.5t14.5 -38.5q2 -8 2 -15.5v-13.5q0 -8 -2 -16q0 -27 -23.5 -49.5t-47.5 -26.5q-23 -4 -41.5 -1t-36.5 9l-11 10q-10 10 -16 23q-8 23 -6 45zM96 1063q0 16 6.5 38.5t49.5 33.5q25 -2 41 -16.5 t24 -34t11 -42t3 -43.5q2 -78 8.5 -140t12.5 -121.5t10 -121t4 -137.5q0 -55 -10 -91t-45 -81q-27 -10 -44 2.5t-22 40.5q-10 35 -17 56.5t-7 56.5v121l2 63q2 6 1 27.5t-5 70.5q-6 78 -11.5 117t-5.5 72q0 25 -3 52.5t-3 76.5z" />
<glyph unicode="&#x22;" horiz-adv-x="757" d="M82 1020v9v9l6 60q2 23 3 43t9.5 34.5t26.5 22.5t57 8q37 0 66 -20.5t29 -61.5q0 -10 -12.5 -23.5t-20.5 -25.5q-6 -10 -10.5 -15t-9.5 -12.5t-11 -21.5t-14 -39q-4 -10 -5 -15t-2 -9.5t-1 -11.5v-21q4 -33 12 -60q6 -16 6 -21v-7t1 -4t7 -11q14 -29 22.5 -41t16.5 -21 t19.5 -20t31.5 -36q35 -35 51.5 -54.5t12.5 -33.5q-6 -16 -18.5 -18.5t-20.5 -6.5q-14 -4 -46 15.5t-48 39.5q-31 35 -49.5 59.5t-31 48t-23.5 52.5t-32 72l-18 75q-2 27 -3 41.5t-1 20.5zM387 1016v9v9l6 60q2 23 3 43t8.5 34.5t26 22.5t56.5 8q39 0 67 -20.5t28 -59.5 q0 -12 -11.5 -24.5t-19.5 -26.5q-6 -10 -10 -15t-9.5 -12.5t-11.5 -21.5t-14 -39q-4 -10 -5 -15t-2 -9.5t-1 -11.5v-21q0 -29 10 -60q6 -16 7 -21t1 -7t1 -4.5t5 -10.5q14 -29 23.5 -41t17.5 -21t19.5 -20t29.5 -36q35 -35 51.5 -54.5t12.5 -34.5q-6 -16 -17.5 -18t-21.5 -6 q-6 -2 -18.5 3t-26.5 13t-27.5 18.5t-21.5 20.5q-31 35 -48.5 59.5t-29.5 48t-24.5 52.5t-32.5 72l-19 75q0 27 -1 41.5t-1 20.5z" />
<glyph unicode="#" horiz-adv-x="991" d="M82 272q0 10 2 35t16 35q18 10 42 6t42 -4q20 0 47 -1t50 -5q6 23 10 44t10 40l23 106h-29h-59h-45t-70 15q-6 0 -10.5 18.5t-2 39t12.5 38.5t29 18q20 2 30 1t37 -1h107q14 27 19 69t9 85t8.5 83t14.5 64q6 16 29.5 14.5t33.5 -11.5q14 -16 16.5 -50t-3 -76t-14.5 -85 t-15 -80q6 -6 22 -6q49 0 77 -2.5t43.5 -3.5t25.5 -2t28 3q2 4 6.5 27t8.5 49.5t8 49t4 28.5q0 2 1 15.5t3 28.5t4 28.5t2 15.5l7 47q14 29 24 35t39 6q20 0 27.5 -18.5t5.5 -48.5q-4 -57 -10.5 -126t-20.5 -147h29q45 0 69.5 -3t69.5 -3q8 -4 11 -21.5t2 -37t-5 -36 t-8 -18.5q-16 -2 -31.5 -2t-44.5 2q-16 0 -26.5 1t-20.5 1t-29.5 1.5t-40.5 1.5q-18 -10 -28 -63.5t-29 -170.5q31 -2 43 -3t21.5 -3t20.5 -3t40 -3l102 -2q8 0 11.5 -14.5t2.5 -32t-4 -31.5t-8 -14q-12 -2 -30.5 -2t-39 1t-40 2t-29.5 1h-102v-25q0 -41 -4 -80t-4 -80 q0 -16 -30 -16t-52 4q-18 16 -12 34.5t4 51.5q2 18 2 27.5t4 25.5q2 31 4 45.5t-2 26.5q-6 6 -28.5 8t-72.5 2q-45 0 -84 -6q-6 -6 -9 -25.5t-8 -47l-11 -60.5t-17 -66q-4 -8 -17 -12t-28.5 -5t-27 1t-11.5 8q0 25 4.5 54.5t10.5 60.5t11 58.5t7 49.5q-10 12 -33.5 11.5 t-46.5 -0.5q-39 0 -69.5 7t-30.5 23zM369 334q39 -10 61.5 -8t65.5 2q10 0 32.5 -3t30.5 5l14 94q8 45 13.5 67.5t7.5 36.5q-49 -8 -90 -0.5t-92 0.5q-8 -35 -22.5 -92t-20.5 -102z" />
<glyph unicode="$" horiz-adv-x="741" d="M82 109q2 23 12 38t25.5 21t31 2t27.5 -20q20 -6 26.5 -8.5t8.5 -4.5t5 -2h15q43 -16 59.5 -4t19.5 37t1 54.5t2 51.5q2 35 3 43.5t1 18.5t-1 35.5t1 97.5q-84 27 -129 65.5t-65.5 77.5t-22.5 74t0 57q33 90 94.5 138.5t127.5 74.5q18 8 22 20.5t4 34t1 52.5t14 78 q18 18 38.5 22t39 -1t31.5 -18.5t20 -27.5q-4 -4 -7.5 -18.5t-6.5 -31.5t-4 -32.5t1 -21.5q-8 -29 -4 -45q2 -8 4 -15q12 -10 40 -11t55.5 -4t46 -13.5t14.5 -36.5q-18 -23 -35.5 -28t-36 -4t-41 2t-53.5 -9q-6 -49 -11 -77t-8.5 -50.5t-5.5 -48t-4 -68.5q29 -20 61.5 -36.5 t63.5 -42t56.5 -64.5t39.5 -105q2 -102 -20.5 -156.5t-59 -85t-83.5 -53t-97 -61.5q-12 -55 -17 -101t-12.5 -76t-22.5 -36t-48 23q-27 49 -26 101t12 89q-45 23 -71 30t-45 14t-37.5 19.5t-49.5 45.5zM231.5 735.5q-14.5 -28.5 3 -62.5t91.5 -73q4 47 10 102t-4 127 q-25 -18 -55.5 -41.5t-45 -52zM423 273.5q-3 -72.5 1 -119.5q74 39 95.5 82t13 82.5t-35 73.5t-51.5 52q-20 -98 -23 -170.5z" />
<glyph unicode="%" horiz-adv-x="921" d="M82 872q0 90 29.5 148.5t71.5 92.5t90.5 47.5t84.5 13.5q70 0 111 -16.5t64.5 -39t34 -45t16.5 -35.5q16 16 34.5 28.5t40.5 12.5q47 0 79 -41t32 -86q-43 -59 -97.5 -135t-107.5 -155.5t-100 -157.5t-80 -139q-10 -20 -31.5 -80t-46 -123.5t-49.5 -112.5t-39 -49 q-8 0 -18.5 7t-19.5 18.5t-15 22.5t-6 18q0 45 2 70.5t9 48t20.5 51t35.5 83.5q20 35 40 68t26 43q16 29 30.5 59.5t32.5 59.5q18 31 43 68.5t49.5 78.5t44 81t25.5 75q-29 -4 -65.5 -20.5t-75.5 -34t-76 -31.5t-61 -14q-23 0 -53.5 2t-51.5 12q-35 18 -44 50t-9 56z M191.5 911.5q1.5 -14.5 7.5 -24.5t20 -10q25 -4 33 -2t20 2q10 0 31 4t37 8q25 6 37 11t19 10t13.5 11.5t18.5 14.5q25 14 31 18t16 39q2 8 1 17.5t-7 16.5t-21.5 13.5t-44.5 8.5l-86 -7q-25 -6 -39 -11t-25 -13t-22.5 -20.5t-29.5 -32.5q-4 -8 -7.5 -23.5t-2 -30zM467 233 q0 31 11 63t32.5 57.5t51.5 43t67 17.5h53.5t40.5 -5.5t34 -17.5t34 -37l34 -67q4 -4 7.5 -21.5t3.5 -23.5q4 -4 4 -22.5v-24.5q2 -63 -64 -123q-29 -31 -74 -54.5t-73 -15.5q-88 23 -125 75t-37 156zM559 197q4 -39 18.5 -59.5t67.5 -33.5q12 -4 28.5 4.5t31 22.5t25.5 32 t13 34q14 57 -38 110q-10 4 -25.5 13.5t-36.5 5.5q-18 -4 -26.5 -6.5t-18.5 -10.5l-29 -33q-8 -23 -8 -38t-2 -41z" />
<glyph unicode="&#x26;" horiz-adv-x="897" d="M166 268q0 29 3 47.5t9 30.5t14.5 22.5t16.5 24.5q23 39 46.5 64.5t42.5 44t29.5 32t6.5 27.5q-6 18 -11.5 33.5t-11.5 34t-14 42t-18 60.5q-2 27 -4.5 35t-6.5 31q-6 29 -8 51t-2 51q6 27 7 36t3 12t5 5t12 17q12 20 24.5 30.5t30.5 26.5q6 8 24.5 13t42 6.5t47 -3 t40.5 -16.5q27 -18 39 -35.5t16 -35t3 -35t-1 -35.5q2 -96 -5 -146.5t-19.5 -78t-27 -46t-26.5 -51.5q-4 -10 2 -18t17 -27q4 -10 11 -22.5t21 -34.5q8 -10 17.5 -30.5t18.5 -41t20.5 -37t25.5 -18.5q8 6 12.5 8t8.5 7t10 14.5t18 29.5l21 45q8 18 9 28.5t5 27.5 q8 20 14.5 25t10.5 7q16 8 24.5 4t16.5 -14q2 -4 9 -9t13 -14.5t8 -23t-4 -33.5q-39 -78 -65.5 -116.5t-42 -60t-21.5 -35t-6 -38.5q0 -12 2 -17t7.5 -11t14.5 -15.5t23 -27.5q14 -14 20.5 -21.5t8.5 -12.5t3 -11.5t7 -18.5t-3 -21.5t-24.5 -14.5t-34 -7t-30.5 -2 q-10 0 -19.5 15.5t-19.5 34t-20.5 33.5t-20.5 15q-10 -4 -24.5 -20t-35 -32.5t-47 -30t-59.5 -11.5q-27 2 -45 4t-51 23q-37 18 -57.5 37.5t-42.5 52.5q-18 27 -25.5 57.5t-7.5 83.5zM301 264q0 -6 2 -25.5t10.5 -41t20.5 -40t35 -20.5q41 -6 63 -3t53 26q10 10 15.5 14 t2.5 14.5t-14.5 33t-31.5 67.5q-8 18 -14.5 31.5t-13.5 26.5t-17.5 28.5t-28.5 38.5q-33 -8 -50.5 -28.5t-24.5 -45.5t-7 -46.5v-29.5zM360 778q0 -10 4.5 -31.5t10.5 -43t14 -37t19 -13.5q23 10 32 15.5t15 38.5q8 47 8 69q0 14 1 14t-1 27q-2 39 -10 68q-6 25 -17.5 42 t-29.5 13q-16 -4 -23.5 -20.5t-11.5 -32.5q-6 -20 -6 -45q-4 -27 -4.5 -37t-0.5 -27z" />
<glyph unicode="'" horiz-adv-x="413" d="M63 625q-6 14 11.5 33.5t52.5 54.5q18 25 29.5 36t19.5 20t16.5 21.5t24.5 40.5q4 8 5 10.5t1 4.5t1 7t7 21q10 31 11 60v21.5t-1 11.5t-3 9t-5 15q-8 27 -14 40t-11 20.5t-9 12.5t-11 15q-8 14 -20 26.5t-12 24.5q0 39 28.5 59.5t67.5 20.5q37 0 55.5 -8t26.5 -22.5 t9 -35t3 -42.5l6 -60v-9v-9t-1 -20.5t-1 -40.5l-18 -76q-20 -43 -32.5 -72t-25 -52.5t-30 -48t-47.5 -59.5q-10 -10 -23.5 -20t-27 -18.5t-25.5 -13.5t-19 -3q-10 4 -21 6t-18 19z" />
<glyph unicode="(" horiz-adv-x="684" d="M83 519q-1 9 1 26q0 35 -1 77t5 83q0 4 6 28.5t14.5 59t18.5 72.5t20 69q33 70 57.5 118t47 80.5t49.5 57t64 49.5q8 6 26.5 11t40 9.5t41 6.5t29.5 2q23 0 32 -7.5t19 -11.5q39 -27 46 -49t-1 -59q-8 -25 -15.5 -29t-23.5 -14l-24 -6q-12 -6 -15.5 -8.5t-5.5 -2.5t-7 -1 t-20 -5q-53 -12 -96 -31.5t-74 -62.5q-8 -12 -19 -36.5t-20.5 -49.5t-15.5 -45.5t-6 -22.5l-31 -129q-12 -59 -10 -100t2 -88q0 -152 44 -251t98.5 -159.5t98.5 -92.5t44 -48q0 -82 -82 -82q-35 0 -71 20.5t-67.5 51.5t-56 65.5t-37.5 63.5q-10 18 -23 41.5t-22 40.5 q-10 23 -20.5 64t-20.5 102q-6 29 -10 70.5t-6 60.5q-2 10 -2 19v26q0 8 -1 17z" />
<glyph unicode=")" horiz-adv-x="684" d="M85 1200.5q7 22.5 44 48.5q10 4 20.5 11.5t32.5 7.5q10 0 29.5 -2t41 -6.5t40 -9.5t26.5 -11q37 -25 63 -49.5t49.5 -57t48 -80.5t57.5 -118q8 -31 18 -69t19.5 -72.5t15.5 -59t6 -28.5q6 -41 5 -83t-1 -77q2 -16 1 -25.5t-1 -17.5v-25.5t-2 -19.5q-2 -18 -6 -60t-10 -71 q-10 -61 -20.5 -102.5t-20.5 -63.5q-8 -16 -22.5 -40t-22.5 -42q-12 -29 -37 -63.5t-56.5 -65.5t-67.5 -51.5t-71 -20.5q-82 0 -82 82q0 16 44 48t98.5 92.5t98.5 159.5t44 251q0 47 2 88t-10 100l-31 129q0 2 -7 22.5t-16.5 45.5t-19.5 49.5t-18 36.5q-31 43 -74 62.5 t-96 31.5q-14 4 -19.5 5t-7.5 1t-5 2t-15 9l-25 6q-16 10 -23.5 14t-15.5 29q-8 37 -1 59.5z" />
<glyph unicode="*" horiz-adv-x="794" d="M87.5 415.5q-9.5 20.5 27.5 51.5q23 10 55.5 17.5t61 12.5t46 6t9.5 -1q-20 18 -60.5 57t-70.5 80q-20 25 -22.5 47.5t32.5 44.5q16 10 32.5 -3t34.5 -34q2 -4 4.5 -7t6.5 -8t11 -15.5t19 -30.5q16 -27 28.5 -50.5t33.5 -23.5q10 0 4 24.5t-8 43.5v31.5v20.5t1 21.5 t1 32.5q8 49 23.5 57.5t29.5 6.5q35 -2 38 -30t-4 -65.5t-13.5 -76.5t12.5 -66q14 2 40.5 26.5t55.5 51.5t54.5 49.5t35.5 22.5q33 0 51 -33q2 -12 2 -21q0 -8 -2 -17t-8 -13q-16 -14 -22 -18.5t-11.5 -7.5t-14.5 -9t-34 -23q-14 -8 -32.5 -18t-37 -19.5t-32.5 -17.5 t-21 -14q53 -14 98.5 -15.5t80 -1.5t60.5 -4t38 -22t15 -41t-15 -35q-12 -8 -28.5 -4t-22.5 4q-14 0 -42 4t-38 12l-135 33q16 -31 53 -58.5t84 -68.5q31 -20 35 -51t-2 -39q-12 -16 -25.5 -17t-30.5 19q-6 6 -27.5 26.5t-31.5 36.5q-10 8 -21.5 22.5t-25.5 29.5l-51 53 q6 -27 8 -40t4 -22.5t3 -16.5t5 -21q8 -35 13.5 -53.5t3.5 -47.5q-25 -39 -72 8q-8 14 -11.5 45t-6.5 62t-7 54.5t-12 23.5q-12 0 -22.5 -20.5t-22.5 -48.5t-30.5 -55.5t-49.5 -39.5q-18 4 -23.5 22.5t5.5 42.5q8 16 53 70q16 16 29.5 37.5t29.5 38.5q-12 6 -35.5 0 t-51 -15.5t-57.5 -16.5t-50 -3q-18 10 -27.5 30.5z" />
<glyph unicode="+" horiz-adv-x="1017" d="M42 440q-1 31 17 54q25 18 49.5 15t63.5 -3q20 0 58 3t59 3q12 0 23.5 -1t23.5 -1h57l-2 55q0 41 -1 87t0 90t4 82t12 61q2 6 6 14t8 19q14 16 35.5 24t48.5 -29q8 -25 12 -73.5t5 -107t3 -118t6 -104.5q104 2 175 5t151 3q8 0 31.5 -7t40 -20.5t17.5 -36t-34 -53.5 q-49 -14 -84.5 -12t-95.5 -2q-55 -4 -97 -2t-89 -2q-2 -18 -2 -35.5v-48.5l-2 -37q-2 -18 0 -29.5t2 -35.5q2 -23 3 -36.5t1 -27.5q0 -12 3 -31.5t1 -25.5q-16 -49 -39 -65.5t-45.5 -10.5t-38.5 29.5t-20 56.5q-4 31 -6.5 51.5t-2.5 39t1 39t3 50.5q-2 29 -3 62.5t-1 52.5 h-82q-39 0 -64.5 -3t-64.5 -3q-14 0 -41.5 -2t-44.5 0q-16 2 -31.5 5t-21.5 25q-6 6 -7 37z" />
<glyph unicode="," horiz-adv-x="473" d="M83 -375.5q3 13.5 23 25.5q51 12 86 45t56.5 77t30 94t2.5 97q-6 29 -19.5 48.5t-29 34.5t-30 28.5t-18.5 29.5v14.5t5.5 26t14.5 26.5t25 19l45 9q27 6 49.5 -17.5t37 -57.5t22.5 -71.5t8 -60.5q0 -45 -1 -86t-8 -79t-22.5 -76t-46.5 -75q-20 -27 -37.5 -39t-48.5 -36 q-12 -6 -20 -11.5t-19 -9.5q-10 -4 -13 -4h-25q-18 -2 -36 5t-26 18.5t-5 25z" />
<glyph unicode="-" d="M82 371q0 23 27.5 36t48.5 17q59 8 109 9t110 3h60.5h42t38 -1t51.5 -1h84q16 0 30.5 -1t31.5 -1q47 0 67.5 -17.5t20.5 -33.5l-8 -41q-16 -18 -39 -27q-14 -4 -43 -6t-59.5 -2t-57.5 1t-37 1h-354q-12 0 -33.5 5t-41 13.5t-34 19.5t-14.5 26z" />
<glyph unicode="." horiz-adv-x="370" d="M86 61q-10 66 11.5 113t90.5 49q33 0 52.5 -13t30 -31.5t14.5 -36t4 -23.5v-26.5t-6 -41.5q-6 -10 -13 -18q-8 -14 -24 -23q-10 -8 -22.5 -9t-30.5 -1q-10 0 -26.5 4t-34 11.5t-31 18.5t-15.5 27z" />
<glyph unicode="/" horiz-adv-x="649" d="M82 63q0 33 6 56.5t10 38.5l15 37q4 10 7 19t7 24q2 8 7 20t7 18q4 10 4 12.5t5 14.5q4 12 5 14t3 11q2 4 5 18t3 19q0 2 7 22.5t15.5 45t15.5 48t11 33.5q23 78 61.5 181.5t85.5 230.5q6 14 13.5 32.5t15.5 37t14.5 35t10.5 24.5q10 29 14 49t12 47q12 23 23.5 29 t30.5 6q8 0 20 -4t23.5 -10.5t19.5 -14.5t8 -16q0 -18 -13 -62.5t-33.5 -101.5t-46 -119.5t-49.5 -121t-43.5 -105.5t-29.5 -70q-14 -35 -27.5 -77t-23.5 -68q-23 -72 -49.5 -146.5t-50 -136t-42 -99.5t-24.5 -34q-12 -6 -22.5 -1t-17.5 16.5t-10 24.5t-3 23z" />
<glyph unicode="0" horiz-adv-x="999" d="M110.5 469q-1.5 106 39.5 233q27 82 59.5 156t77.5 132.5t106.5 96t149.5 48.5q39 4 96 -1.5t98 -33.5q37 -25 62.5 -67t44 -93t30 -107.5t21.5 -109.5q20 -115 3 -235.5t-63.5 -223t-113 -174.5t-139.5 -88q-68 -16 -113 -17t-73.5 5t-44 15t-27.5 15q-78 37 -115 90.5 t-62 137.5q-35 115 -36.5 221zM252 487.5q-4 -73.5 2 -142.5t29 -105q16 -25 35.5 -49.5t46 -44t62.5 -30t85 -5.5q57 4 108.5 58t89.5 136t58 180.5t16 190.5q0 12 -1 21.5t-1 23.5q-4 29 -7 52t-13 56t-18.5 61t-18.5 49.5t-28.5 39.5t-51.5 37q-23 12 -51.5 17t-63.5 -9 q-12 -4 -19 -8t-14.5 -8t-16.5 -11.5t-25 -17.5t-35 -27.5t-31 -33.5q-10 -16 -18.5 -31t-24.5 -33q-25 -29 -34 -59.5t-21 -67.5q-12 -33 -23.5 -99.5t-15.5 -140z" />
<glyph unicode="1" horiz-adv-x="1079" d="M108.5 38q-6.5 38 38.5 81q53 23 102.5 23.5t86.5 -0.5t59.5 5.5t22.5 40.5v150q0 49 2 127t3 161t0 159.5t-7 127.5q-10 -14 -39 -39.5t-59.5 -52t-57.5 -50t-33 -32.5q-20 -29 -51 -12.5t-47 51.5q8 27 18.5 45.5t20.5 30.5t21.5 21.5t21.5 19.5q82 90 123 137 t64.5 68.5t38 30t40.5 22.5q10 6 37 3t37 -7q6 -14 10 -52t6 -81t3 -82t1 -57v-134q0 -10 -3 -54t-6 -104.5t-6 -131t-5 -131t-1 -103.5t7 -51t7 -11t7.5 -4t20.5 -1t47 -2q8 0 23.5 -1.5t39.5 -1.5q6 0 18.5 -2t24.5 -4q14 -2 31 -4l53 -8q33 -2 45.5 -22.5t7.5 -43 t-24.5 -42t-48.5 -21.5q-35 -6 -53.5 -7t-37 0t-43 3t-69.5 2q-27 0 -101.5 2t-158.5 2q-10 0 -35.5 -1t-53.5 -1t-53.5 -1t-35.5 -1q-53 2 -59.5 40z" />
<glyph unicode="2" horiz-adv-x="1040" d="M24.5 120q14.5 38 51.5 64.5t84 18.5q20 -4 53 -2t66.5 8t63.5 14t46 15q10 10 37 39.5t57.5 66.5t60 72t46.5 57q39 55 66.5 111.5t47 103.5t30.5 81t16 44q18 43 17 74t-13.5 54.5t-34 37.5t-45.5 22q-16 6 -52 0t-82 -18t-95.5 -29.5t-88.5 -35.5q-63 -33 -81.5 -21 t-12.5 43t26.5 66.5t37.5 48.5q10 8 43.5 32.5t88 46t129.5 31t169 -9.5q29 -12 65.5 -31.5t69.5 -52.5t55.5 -81t20.5 -117.5t-34 -162t-106 -212.5q-66 -106 -113.5 -172t-80.5 -102t-49.5 -49t-16.5 -15q6 -2 21 -2h106q20 0 59.5 -4t59.5 -7q27 -2 51.5 -7t65.5 -7 q25 -6 41 -22.5t22 -36t1 -39t-25 -29.5q-41 -10 -76 -4t-70 10q-16 4 -40.5 8.5t-45.5 4.5q-20 0 -39.5 2t-40.5 2h-106q-23 0 -51.5 -7.5t-91.5 -5.5q-12 2 -18.5 2h-12.5t-14.5 -1t-26.5 -1h-22.5h-18.5t-24.5 -1t-41.5 -1q-18 0 -29.5 -1t-22.5 -2t-26.5 -3t-41.5 -8 q-63 10 -81 46t-3.5 74z" />
<glyph unicode="3" horiz-adv-x="956" d="M82 101.5q0 11.5 2 11.5q0 2 10 28.5t31.5 54t55.5 44t79 -1.5q6 -2 4 -10.5t-9 -18.5t-17.5 -20.5t-20.5 -18.5q-6 -6 7.5 -11t31.5 -10.5t38.5 -7.5t31.5 -2q78 2 148.5 18.5t125.5 38t91 45t44 42.5q8 39 1 68.5t-22.5 51t-36 36t-40.5 20.5q-10 2 -40 -3t-65.5 -11.5 t-66.5 -11.5t-41 -3q-18 6 -33.5 22.5t-19.5 37t7 41t42 34.5q47 20 103.5 54t103.5 84.5t73.5 122t12.5 167.5q-16 31 -46 32t-73 -5q-10 -2 -16.5 -2t-16.5 -4t-20.5 -9.5t-28.5 -9.5t-46 -20.5t-46 -22.5q-29 -12 -45.5 -18t-55.5 -10q-59 -4 -73.5 17.5t20.5 68.5 q51 45 107.5 79.5t120 53t136 18.5t158.5 -22q37 -10 60.5 -54.5t19.5 -105.5q-4 -55 -21.5 -120.5t-45 -124t-60 -103.5t-65.5 -60q14 -4 34.5 -18t43.5 -31q20 -16 45.5 -32.5t45 -45t26.5 -79t-7 -132.5q-10 -59 -54 -99t-106.5 -65.5t-135 -40t-139.5 -19.5t-122 -3 t-80 6q-18 4 -38.5 5t-38.5 6q-29 8 -42.5 22t-19.5 29.5t-6 27z" />
<glyph unicode="4" horiz-adv-x="907" d="M102 604q8 25 14.5 43.5t13.5 34.5t15.5 33.5t20.5 42.5l39 116q14 39 21 89.5t17.5 94.5t28 74.5t50.5 30.5q29 0 51 -16.5t35 -40.5q0 -2 -8.5 -29.5t-23 -67.5t-30.5 -88.5t-29.5 -94.5t-22.5 -81.5t-9 -52.5v-8h6h49t98.5 1t98.5 3t47 6q31 63 47 120.5t26.5 112 t16.5 106.5t16 106q25 25 38 23.5t32 -1.5q10 0 25.5 -7t29.5 -19.5t22.5 -26t4.5 -25.5q-10 -45 -29.5 -124.5t-44.5 -177t-50.5 -204t-48 -201.5t-35.5 -171t-13 -115q0 -14 3 -24.5t-1 -24.5q-6 -16 -24.5 -29.5t-37.5 -13.5q-16 0 -33.5 5t-29.5 15l-15 15q-4 4 -4 17 t8 30q6 14 7.5 21.5t2.5 13.5t1 13t4 19q8 35 16 90.5t18.5 116t21.5 116.5t24 93q-10 10 -37 10h-39q-20 0 -56 -3t-57 -3q-27 0 -51.5 -1t-50.5 -1q-20 0 -50 -2t-46 -2q-35 0 -60.5 1t-32.5 42z" />
<glyph unicode="5" horiz-adv-x="804" d="M67 192q3 11 21 27q10 6 18 12q16 10 33 5q4 -2 13 -11q4 -4 6 -8q10 -16 12 -28.5t12 -26.5q6 -10 30 -18.5t40 -12.5q12 -2 28.5 -5t35 -4t37 0t32.5 7q53 25 87 55.5t52.5 73.5t21.5 99.5t-5 134.5q-8 41 -30 62t-56 30q-16 4 -47 3t-54 -5q-31 -4 -45 -8.5t-43 -8.5 q-47 -4 -76.5 -1t-42.5 44l5 94q0 6 4 49.5t10 93.5t10 93t4 49q0 39 12.5 85t45.5 67q31 6 44 9t24 4t28.5 2t56.5 3q80 4 144.5 4t121.5 -10q18 -6 42 -21.5t24 -50.5q0 -16 -3 -38.5t-24 -22.5h-15t-24 -2l-24 -4q-16 0 -30.5 -2t-31.5 -4q-33 -4 -62.5 -2t-57 4t-55 0 t-58.5 -13q4 -4 -2 -47t-12.5 -92t-10.5 -89t6 -40q14 0 39 2t50.5 5t50 5t39.5 2q115 -8 159.5 -94t36.5 -241q-4 -59 -6 -96.5t-14 -70t-37 -71.5t-72 -102l-16 -17q-23 -14 -41.5 -22.5t-38.5 -13.5t-47 -9t-70 -8q-25 0 -64.5 -1t-66.5 3q-20 4 -45.5 12t-46.5 17 q-10 8 -23.5 20t-21.5 23q-14 20 -13 36.5t-3 45.5t-1 40z" />
<glyph unicode="6" horiz-adv-x="968" d="M99 307.5q-1 24.5 0 48t3 41.5l25 123q4 23 24.5 74t48 108.5t56.5 108.5t47 74q6 16 27.5 43.5t52.5 58.5t67.5 62.5t71.5 57.5t65.5 42t49.5 16q35 0 63.5 -24.5t16.5 -57.5q-4 -14 -8 -17t-31 -19q-18 -10 -28.5 -16.5t-21 -12.5t-22.5 -15.5t-33 -23.5 q-35 -23 -56 -41t-38 -35q-43 -45 -83 -108.5t-72.5 -134t-56 -142.5t-36.5 -133l-10 -59q-4 -16 -2 -25.5t4 -26.5l19 17q10 10 22 20.5t17 14.5q41 45 92 82.5t101 66.5t96 47.5t79 26.5q25 6 55.5 6h34.5q25 0 49.5 -9t46 -25.5t35 -39t13.5 -49.5q2 -92 -43 -172 t-113 -138.5t-148.5 -92t-150.5 -29.5l-94 4q-35 2 -72 23.5t-69.5 54.5t-55 73t-31.5 76q-2 10 -4 31t-3 45.5zM307 156q8 -16 22.5 -24.5t28 -10.5t26.5 0t24 2q59 6 118.5 31.5t110.5 63.5t87 87.5t46 104.5q-4 12 -19.5 18t-31.5 6q-33 0 -79 -16.5t-95 -43t-93 -57 t-75 -57.5q-25 -31 -42.5 -51.5t-27.5 -52.5z" />
<glyph unicode="7" d="M45 1055.5q-6 17.5 0 38.5l29 45q20 12 42.5 23.5t45.5 11.5q18 0 51 -2.5t53 -2.5q25 0 63 1t62 1q23 0 46.5 1.5t45.5 1.5q18 0 37 -1.5t39 -1.5q47 0 97.5 3.5t97.5 3.5q8 0 23.5 -2t27.5 -10.5t16 -24.5t-6 -43q-29 -70 -61.5 -137.5t-63.5 -128t-57.5 -110.5 t-40.5 -87q-16 -35 -39 -91.5t-44.5 -111.5t-37.5 -101t-20 -61q-6 -20 -11.5 -61t-11.5 -57q-6 -14 -9 -33t-11 -35q-8 -23 -30 -52.5t-46 -29.5q-25 0 -48.5 41t-15.5 100q6 37 28.5 101.5t53.5 140.5t63.5 150.5t57.5 134.5q29 61 45 98t27.5 63.5t21.5 51t29 59.5 q16 37 36.5 65.5t14.5 32.5q-8 4 -12 2t-17 0q-14 -2 -34.5 -2h-26.5q-63 0 -128 -1t-126 -13q-20 -4 -41.5 -10t-42.5 -6q-14 0 -37.5 -5.5t-38.5 -5.5q-20 0 -40.5 7.5t-35 19.5t-20.5 29.5z" />
<glyph unicode="8" horiz-adv-x="794" d="M43 203q0 29 1 44t4 28.5t7 28.5t13 42q18 57 62 106.5t91 84.5q12 16 11 19t-11 17q-6 4 -15 20.5t-19.5 38t-21.5 45t-22 40.5q-10 16 -17 29.5t-12 33t-6.5 47t3.5 74.5q2 45 12 78t22.5 56.5t25.5 42t26 34.5q31 37 68.5 48t84.5 18q25 2 59.5 0t69.5 -6.5t67 -12.5 t48 -20q29 -43 48.5 -53.5t25.5 -28.5q14 -37 16 -55.5t4 -36.5q0 -16 1 -23.5t1 -12.5t-1 -12.5t-1 -19.5q0 -6 -4 -28.5t-10 -49t-13.5 -50.5t-13.5 -32q-18 -31 -31.5 -62.5t-52.5 -80.5q-6 -8 -10 -11t-14 -14q-12 -10 -19.5 -12t-23.5 -18q29 -23 61.5 -47.5t63 -51 t54 -53.5t34.5 -55q37 -104 8 -185t-123 -122q-92 -41 -186.5 -36t-202.5 40q-29 10 -44.5 22t-45.5 15q-4 2 -11 10q-10 10 -20 30q-14 20 -21.5 34t-10.5 24t-5 18t-4 21zM187 241.5q1 -18.5 1 -20.5q10 -37 54.5 -59.5t93.5 -34.5q37 -10 77 -15.5t74.5 0t63.5 23 t43 53.5q25 59 -1 111.5t-73 93.5q-33 29 -73.5 44.5t-81.5 16.5t-79 -14.5t-65 -50.5q-16 -20 -23.5 -48t-9.5 -54.5t-1 -45zM227 862q-2 -35 11.5 -70.5t36 -64.5t51 -46t59.5 -17q39 0 69.5 19t53 51t37 72t18.5 81q2 25 -8 51.5t-29.5 50t-50.5 42t-67 26.5 q-37 8 -69 -2.5t-55.5 -37t-39 -65.5t-17.5 -90z" />
<glyph unicode="9" horiz-adv-x="724" d="M25 813q0 18 1 35.5t7 42.5l20 65q6 16 13.5 25.5t17.5 28.5q20 33 58 60.5t80 47t81 30.5t64 15q53 8 97 8t68 -10q16 -6 24.5 -5t27.5 -9q51 -23 73.5 -57.5t22.5 -63.5q0 -6 -10.5 -40t-24.5 -75t-26.5 -77.5t-14.5 -49.5q-12 -53 -24.5 -113.5t-24.5 -122 t-24.5 -117.5t-26.5 -99l-11.5 -46t-14.5 -63t-14 -62.5t-13 -43.5l-11 -33q-10 -41 -19 -69.5t-52 -28.5q-25 0 -42.5 29.5t-17.5 52.5q0 6 5 33.5t11.5 58t13.5 59.5t11 39q6 20 19.5 73.5t27 113t23.5 112.5t14 76q-23 -10 -42 -18.5t-54 -20.5q-6 -2 -27.5 -1t-47 2 t-48 3t-31.5 2q-23 0 -49 12.5t-49 40.5q-18 25 -30.5 42.5t-19.5 33.5t-9 35.5t-2 48.5zM168.5 826.5q-12.5 -33.5 7.5 -72.5q27 -51 83 -52.5t110 21.5q57 27 75.5 77t28.5 111q2 18 9 38t10.5 37.5t-1 30.5t-20.5 19q-23 8 -61.5 3t-78.5 -22.5t-77 -47t-55 -68.5 q-18 -41 -30.5 -74.5z" />
<glyph unicode=":" horiz-adv-x="370" d="M86 68q-10 66 11.5 112.5t90.5 48.5q33 0 52.5 -13t30 -31.5t14.5 -36t4 -23.5v-26.5t-6 -41.5q-6 -10 -13 -18q-8 -14 -24 -23q-10 -8 -22.5 -9t-30.5 -1q-10 0 -26.5 4t-34 11.5t-31 18.5t-15.5 28zM86 653q-10 66 11.5 113t90.5 49q33 0 52.5 -13.5t30 -31.5 t14.5 -35.5t4 -23.5v-26.5t-6 -41.5q-6 -10 -13 -18q-8 -14 -24 -23q-10 -8 -22.5 -9t-30.5 -1q-10 0 -26.5 4t-34 11t-31 18.5t-15.5 27.5z" />
<glyph unicode=";" horiz-adv-x="473" d="M83 -244.5q3 13.5 23 25.5q51 12 86 45t56.5 77t30 94t2.5 97q-6 29 -19.5 48.5t-29 35t-30 28.5t-18.5 30v14t5.5 25.5t14.5 26.5t25 20l45 8q27 6 49.5 -17.5t37 -57.5t22.5 -71.5t8 -60.5q0 -45 -1 -86t-8 -79t-22.5 -76t-46.5 -75q-20 -27 -37.5 -39t-48.5 -36 q-12 -6 -20 -11.5t-19 -9.5q-10 -4 -13 -4h-25q-18 -2 -36 5t-26 18.5t-5 25zM156 664q-10 66 11 112.5t91 48.5q33 0 52.5 -13t30.5 -31.5t15 -36t4 -23.5q0 -8 -1 -26.5t-7 -41.5q-6 -10 -12 -18q-8 -14 -25 -23q-10 -8 -22 -9t-29 -1q-10 0 -27.5 4t-35 11.5t-30.5 18.5 t-15 28z" />
<glyph unicode="=" horiz-adv-x="884" d="M82 371q0 23 27.5 36t48.5 17q59 8 109 9t110 3h60.5h42t38 -1t51.5 -1h84q16 0 30.5 -1t31.5 -1q47 0 67.5 -17.5t20.5 -33.5l-8 -41q-16 -18 -39 -27q-14 -4 -43 -6t-59.5 -2t-57.5 1t-37 1h-354q-12 0 -33.5 5t-41 13.5t-34 19.5t-14.5 26zM82 629q0 23 27.5 36 t48.5 17q59 8 109 9t110 3h60.5h42t38 -1t51.5 -1h84q16 0 30.5 -1t31.5 -1q47 0 67.5 -17.5t20.5 -33.5l-8 -41q-16 -18 -39 -27q-14 -4 -43 -6t-59.5 -2t-57.5 1t-37 1h-354q-12 0 -33.5 5t-41 13.5t-34 19.5t-14.5 26z" />
<glyph unicode="?" horiz-adv-x="714" d="M83 931.5q-3 20.5 11 51.5q18 37 37 70.5t46.5 60.5t70.5 43.5t110 16.5q139 0 208 -50.5t67 -138.5q0 -47 -5 -72.5t-11.5 -40t-13.5 -23.5t-13 -22q-16 -20 -31.5 -42.5t-31 -43t-30 -35t-26.5 -16.5q-4 -12 -15.5 -28.5t-23.5 -34t-22.5 -36t-12.5 -34.5 q-2 -14 -2 -36.5v-46t1 -46t3 -39.5q-16 -66 -51 -70t-72 35q-16 16 -24 42t-8 48q0 74 5 117t18.5 73t35 55.5t51.5 64.5q27 35 46.5 59.5t32.5 47t24.5 49t23.5 67.5l-7 7t-19.5 9t-40 8.5t-68.5 2.5q-37 -2 -62.5 -21.5t-48 -42t-44 -41t-46.5 -18.5q-8 0 -22 4t-25.5 15 t-14.5 31.5zM223 61q-10 66 10.5 113t92.5 49q33 0 52 -13t29.5 -31.5t14.5 -36t4 -23.5v-26.5t-6 -41.5q-6 -10 -12 -18q-14 -18 -27 -23q-10 -8 -22.5 -9t-28.5 -1q-10 0 -26.5 4t-34 11.5t-31 18.5t-15.5 27z" />
<glyph unicode="@" horiz-adv-x="1380" d="M82 426v31q0 12 1 27.5t3 27.5q2 29 10 55q0 6 2 15q4 16 6 22q4 14 17.5 47t36 76t57.5 93t84 100q63 63 111.5 104t93.5 66.5t92 41t109 29.5q35 8 69.5 10.5t65 1t52 -5.5t32.5 -6q109 -33 167 -76t99 -77q20 -18 39.5 -51t35 -67t24.5 -62.5t9 -39.5 q0 -35 -13 -110.5t-54 -153.5q-4 -4 -19.5 -31.5t-44.5 -70.5l-2 2q-16 -25 -40.5 -56.5t-71.5 -91.5q-25 -31 -80 -45t-105 -14q-25 6 -55.5 13.5t-67.5 7.5q-6 0 -24.5 -15.5t-43 -35t-56 -35t-66.5 -15.5q-59 0 -94 31t-51.5 76t-19.5 96t1 90q6 47 27.5 89t50.5 77 t59.5 61.5t55.5 42.5q39 27 99 30t108 -17q18 -8 32.5 -28.5t23.5 -42t14 -42t3 -29.5q-6 -35 -10 -52t-25 -50q-4 -10 -16 -33.5t-8 -29.5q10 -14 27.5 -22.5t35 -11.5t34 -2t24.5 5q49 27 74.5 40t39 22t20.5 17.5t19 20.5q4 4 8 6q18 20 37 55t32 71t21.5 65.5t8.5 40.5 q0 55 -32 111.5t-85 102.5t-125 74.5t-153 28.5q-61 0 -129 -28.5t-132.5 -78t-123 -111.5t-102.5 -130t-68.5 -134.5t-20.5 -123.5q2 -61 3 -91t1 -47.5t3 -31.5t11 -45q10 -41 22.5 -67.5t29.5 -61.5q4 -10 9 -17.5t11 -17.5q10 -14 17.5 -23.5t17.5 -21.5 q20 -25 36.5 -43t36 -32.5t45 -25t62.5 -16.5q25 -4 50.5 -5t43.5 3q47 12 84 29q16 6 35 13t32 8t21.5 -4t1.5 -19q-10 -29 -30.5 -49.5t-45 -34.5t-47 -23.5t-36.5 -11.5q-18 -4 -29.5 -6t-30.5 -2q-18 0 -30.5 -1t-40.5 -1q-18 0 -54 10t-65 27q-27 14 -56.5 40.5 t-55 54.5t-45 52.5t-25.5 36.5q-8 14 -14.5 23.5t-12.5 23.5q-4 8 -7 16.5t-7 18.5q-4 8 -6 20q-10 18 -12.5 30.5t-6.5 23.5q-6 18 -8 25t-6 22q-10 27 -15.5 50t-8.5 49t-6 55.5t-5 68.5zM496 391q-2 -14 6 -36.5t20.5 -43t28.5 -35t33 -12.5q33 4 58.5 26.5t44 54.5 t30.5 68.5t20 71.5q4 20 -5 40t-24.5 36.5t-33 26.5t-27.5 10q-23 0 -48.5 -23.5t-47 -56.5t-37.5 -68.5t-18 -58.5z" />
<glyph unicode="A" horiz-adv-x="882" d="M82 20q0 25 6 60t15.5 70.5t19.5 70.5t16 62q35 88 53.5 141t31 92t24.5 76t37 94q20 66 46.5 154t52.5 165.5t48.5 130t36.5 46.5q4 0 18.5 -3t30.5 -8l41 -8q2 2 8 -2q4 -4 11.5 -10t21.5 -18q10 -4 18.5 -26t16.5 -40q-4 -10 6 -33.5t8 -36.5q2 -4 6 -19t8.5 -33.5 t6.5 -37t2 -28.5q4 -10 10 -62.5t10 -181.5q0 -6 1 -23.5t5 -37t15.5 -36t31.5 -18.5q16 -4 33 -11t23 -24q-20 -16 -33.5 -26t-23 -22.5t-13.5 -29t-4 -42.5q0 -10 5 -46t13.5 -77t15.5 -78t13 -45q2 -16 2 -36t-3 -36t-9 -27.5t-16 -11.5q-41 0 -67 40t-41 91t-22.5 100.5 t-11.5 67.5l-12 74q-37 -4 -54.5 -14.5t-37.5 -10.5q-18 0 -39 -4t-39 -4q-55 0 -85 -12t-45 -37t-23.5 -57.5t-19.5 -71.5t-31.5 -84t-63.5 -92q-4 0 -16.5 1t-25 4t-22.5 8t-10 13zM362 489q23 -8 45.5 -6t38.5 2q18 0 46 8.5t47 12.5q16 4 23 10t11.5 12.5t6.5 11.5t6 9 q-4 -4 -5 7t-1 26.5v31t-5 19.5q-4 43 -11 94t-14 103.5t-12.5 99.5t-5.5 82l-51 -176q-2 0 -15 -40t-31.5 -95.5t-39 -115t-33.5 -96.5z" />
<glyph unicode="B" horiz-adv-x="1050" d="M82 1014q0 33 12 49t31.5 25.5t42 13.5t45.5 14q33 10 76 20.5t83 17.5t71.5 12t41.5 5q31 0 76 -16t85 -42t68.5 -59.5t28.5 -68.5q0 -31 2.5 -52.5t2.5 -42t-5.5 -40t-19.5 -43.5q-31 -45 -63.5 -79t-28.5 -56q12 -8 35.5 -13.5t42.5 -5.5q18 0 41.5 -4t31.5 -4 q10 -4 21.5 -5t24 -2t24.5 -4t27 -16q90 -98 90 -224v-11q-2 -61 -38 -120.5t-86 -109t-106.5 -85t-97.5 -50.5q-45 -14 -59.5 -15t-32.5 -1q-20 0 -40 -1t-40 -1q-23 0 -50.5 15.5t-53 36t-43 42t-17.5 35.5q0 16 13.5 41t33.5 25q18 0 41 -17.5t45 -23.5q18 -4 56 -6h6 q37 0 96 16q16 4 39.5 11t60.5 28q76 47 97.5 91t21.5 99q0 51 -27.5 84t-89.5 33q-16 0 -52 -7t-89 -16q4 -4 -10.5 -8t-32.5 -8t-32.5 -7t-10.5 -3q-14 0 -34.5 1t-39.5 1q-29 0 -43 22.5t-20 57.5q33 51 72.5 72.5t74.5 45t63.5 62.5t41.5 125q6 39 6 65q0 16 -2 27 q-6 29 -19 51q-41 29 -85 29h-62q-2 0 -25.5 -10.5t-52.5 -24.5t-52.5 -29.5t-25.5 -23.5q-6 -29 -16 -97.5t-18.5 -144.5t-14.5 -143.5t-6 -91.5q0 -14 3 -54.5t11.5 -96.5t21.5 -125.5t37 -143.5q-14 -27 -44.5 -31t-46.5 -4q-10 0 -25.5 26.5t-28 64.5t-19.5 77t3 63 q-4 51 -7 127t-5 163t-2 178.5t4 172.5q0 16 -5.5 37t-11.5 41.5t-11 37t-5 26.5z" />
<glyph unicode="C" horiz-adv-x="1069" d="M82 432q0 43 19.5 107.5t48 130t60.5 122t58 85.5q133 137 220 201.5t149 88.5h8q33 0 59 -16q28 -18 29 -45q0 -47 -23.5 -68.5t-88.5 -58.5q-35 -31 -58.5 -46t-44.5 -32q-35 -27 -58.5 -48.5t-53.5 -66.5q-31 -37 -62 -86t-55.5 -98t-38.5 -94t-14 -76v-56.5t10 -78.5 q16 -25 28.5 -39t23.5 -22.5t20.5 -14.5t19.5 -14q14 -27 53 -40t87 -19.5t98.5 -7.5t87.5 -1h100q35 0 54.5 1t43.5 12l76 20q45 -8 49 -23.5t-16.5 -34t-58.5 -38t-76.5 -34.5t-70.5 -25.5t-42 -10.5q-14 0 -32.5 -4t-37.5 -4q-20 0 -50 3t-46 3h-28t-14 2l-31.5 7 t-80.5 14q-80 12 -140 60t-100 110.5t-60.5 127t-20.5 107.5z" />
<glyph unicode="D" horiz-adv-x="1001" d="M82 895v63q0 39 25.5 91.5t60.5 111.5q19 4 50 4q20 0 48 -2q68 -4 153 -19.5t174 -43t163 -69.5t120 -99q45 -55 44 -125v-6q-6 -154 -52.5 -296.5t-123 -252t-177 -176t-213.5 -68.5q-8 0 -27.5 -9t-41 -19.5t-41 -19.5t-27.5 -9q-23 0 -43 14.5t-35.5 34.5t-25 41.5 t-9.5 36.5q0 47 2 86q0 35 1.5 65.5t1.5 40.5v44v90.5t-2.5 96.5t-6.5 64q-8 31 -12 91.5t-5 124t-1 114.5zM223 606q8 -37 13.5 -95t8.5 -121.5t5 -121t8 -92.5q-8 -16 -9 -29.5t1 -21.5q29 4 45 4t26.5 -1t17.5 -2t15 -1q76 0 153 49t137 137q62 89 98 213q35 118 34 256 v15q0 37 -33.5 73.5t-81 66.5t-97.5 47t-83 17q-20 0 -52 4.5t-63.5 7.5t-58 3t-39.5 -6q-23 -39 -31 -88.5t-10 -101.5t-2 -106.5t-2 -105.5z" />
<glyph unicode="E" horiz-adv-x="1132" d="M82 10v381q4 6 7 43t4 80t2 81t1 46l17 408q12 6 26.5 17t28.5 23.5t27.5 21.5t23.5 9q23 2 45.5 -3t40.5 -5q10 0 53 3t102.5 9t130.5 12.5t134 13.5t112.5 12t69.5 7l25 2h6q4 0 9 -1t16 -3q18 -4 45 -8t41 -35q6 -14 -3.5 -26.5t-23.5 -21.5t-29.5 -14t-23.5 -5 q-74 0 -163 -8.5t-179 -22.5t-175 -33.5t-151 -44.5q-6 -6 -15.5 -44t-18.5 -85t-16 -94t-7 -70v-61q4 -4 3 -6t-2 -5t2 -6.5t13 -7.5q10 -2 18.5 -2h26.5q4 0 28.5 5.5t58.5 13.5t72 17t70.5 17.5t56 13.5t27.5 5l68 12h28.5t45 -5t26 -20.5t-31.5 -45.5q-20 -12 -73.5 -35 t-116 -46.5t-122 -43t-90.5 -25.5q-23 -2 -51 -8q-25 -4 -40 -9t-32 1q-14 -16 -20 -39t-7 -44.5t0 -39t1 -25.5q0 -10 2 -25.5t4 -31.5t4 -30.5t2 -22.5q25 4 62.5 0t54.5 -4q63 0 150 21.5t179.5 44t181.5 35.5q43 6 80 6q40 0 74 -7q23 -10 24 -14.5t-11 -20.5 q-47 -37 -105 -65q-14 -6 -17 -7.5t-26 -9.5q-14 -8 -22.5 -11t-22.5 -9q-31 -10 -47 -18.5t-25 -10.5q-25 -10 -57.5 -19.5t-63 -16.5t-55 -12t-37.5 -7q-10 -2 -33.5 -4t-55 -6.5t-68.5 -11.5t-72 -15q-25 -10 -56.5 -10h-47.5q-18 0 -20.5 1t-20.5 1q-25 0 -37 2t-18.5 6 t-9.5 8t-11 8z" />
<glyph unicode="F" horiz-adv-x="989" d="M82 1028q2 33 22.5 53.5t53 31.5t71.5 17.5t76 12.5q47 10 119 17t125 7q27 0 57 2q10 1 21 1q24 0 57 -3q78 4 121 4t55 -26q6 -14 0 -27.5t-16 -25t-21.5 -19.5t-17.5 -8q-10 -2 -14.5 -3t-7.5 -2t-9 -2t-20 -3q-8 -2 -17 -2q-8 0 -19 -1t-22 -1q-16 0 -31.5 -2 t-21.5 -5q-27 -4 -40 -6t-20.5 -3t-12.5 -1t-13 -2q-10 -2 -11 -2h-3t-8.5 -2t-24.5 -4q-23 -2 -33 -3t-17 -2t-13.5 -2t-18.5 -3q-18 -2 -28.5 -4t-20.5 -5.5t-21.5 -7.5t-29.5 -10q-27 -6 -41.5 -46t-20.5 -89t-7 -96t-1 -72q0 -16 4 -50t4 -56q61 12 137 29.5t153 34.5 t144.5 29.5t110.5 12.5q8 0 22.5 -2t29 -7t25.5 -15.5t15 -26.5q4 -8 1 -24.5t-36 -20.5q-53 -12 -122.5 -30.5t-149.5 -43.5q-10 -4 -15.5 -5t-23.5 -7q-10 -4 -29.5 -8.5t-41 -9.5t-42 -10t-30.5 -7q-18 -4 -21.5 -4t-13.5 -2q-16 -2 -29.5 -5t-21.5 -5q-6 -2 -30 -5.5 t-34 -5.5q-8 0 -10 -3t-2 -15q2 -39 3 -68.5t1 -34.5q2 -33 7 -68.5t13.5 -68t19.5 -60.5t26 -44q12 -23 -0.5 -37t-34 -24.5t-44 -14.5t-32.5 -4q-18 0 -28.5 16.5t-16.5 40t-9 46t-5 34.5l-13 160q-4 20 -5 52t-1 67q0 37 -1 59.5t-1 40.5q0 12 -4 51t-9 92.5t-12.5 112.5 t-12.5 112.5t-8 93.5t-3 52z" />
<glyph unicode="G" horiz-adv-x="1021" d="M83 423q3 122 50 261q10 39 22.5 69.5t28 63.5t35 70t47.5 88q35 33 67 65.5t81 59t123.5 44t197.5 17.5q18 0 39 -24.5t21 -40.5t-21.5 -28.5t-40.5 -12.5q-80 0 -164 -43t-153.5 -120t-116.5 -182.5t-49 -230.5q0 -8 -3 -41q-2 -24 -2 -54v-20q1 -42 7 -84t22 -71 q20 -37 44 -56.5t50.5 -28.5t57.5 -10t68 -1q63 0 105 29.5t74 78.5t61.5 114.5t70.5 139.5q-6 8 -27.5 13.5t-46 5.5t-46 -2.5t-28.5 -4.5q-23 -10 -47 -20t-49 -10q-37 0 -53 25q-7 11 -7 24q0 18 13 39q8 8 34.5 21.5t60.5 25.5t71 20.5t65 8.5h52t73 -9q10 -6 24.5 -12 t26 -18.5t16.5 -31.5t-3 -50q2 -18 -9.5 -58.5t-33 -89.5t-48 -102t-54 -99.5t-55 -78t-48.5 -39.5q-31 -16 -71 -33.5t-113 -19.5q-28 -1 -50 -1t-39 1q-34 2 -54.5 5t-33 6t-20.5 7q-57 18 -86 37.5t-44 41t-26.5 46t-33.5 55.5q-32 113 -32 226v19z" />
<glyph unicode="H" horiz-adv-x="937" d="M82 301q0 49 1 88t1 53v93.5t1 139.5t5 158.5t11.5 152.5t19.5 121t33 64q35 0 57 -2t35.5 -12t18.5 -30.5t5 -59.5q0 -41 -7 -91t-16 -101.5t-17.5 -101.5t-8.5 -91h33h20q68 0 134 12q76 14 153 33q2 43 2 84v84q0 45 -1 97t-1 98q0 49 13.5 75.5t70.5 26.5 q18 0 36.5 -2t35.5 -12q3 -34 3 -67q0 -55 -8 -105q-14 -80 -14 -158q0 -20 4.5 -40t10.5 -38l20 -4q27 0 51.5 6t49.5 10l22 -37q-2 -16 -10 -28t-17 -27q-31 -18 -53 -22t-38.5 -12.5t-24.5 -29t-8 -69.5q0 -82 8 -171t8 -171q0 -51 -2 -107.5t-25 -103.5 q-53 4 -78.5 21.5t-34 44t-6 60.5t2.5 71q0 63 -2.5 126.5t-2.5 123.5q-2 19 -2 34q-1 21 3 33q6 22 -9 47q-41 0 -73.5 -12t-70.5 -24.5t-89 -21.5q-31 -5 -70 -5q-26 0 -57 2q-4 -78 -5 -165t-1 -165q0 -23 1 -38t1 -27.5t-1 -26.5t-5 -37q-2 -35 -17.5 -51.5t-32.5 6.5 q-20 0 -32.5 28.5t-19.5 72.5t-9 97.5t-2 102.5z" />
<glyph unicode="I" horiz-adv-x="364" d="M82 1036l16 86q16 14 20.5 21.5t6.5 10.5t7 5t24 8q16 6 38.5 2t43 -16t34 -31.5t11.5 -42.5q-6 -47 -9.5 -87t-7.5 -85t-9 -101t-13 -134q6 -6 6 -76v-40q-2 -108 -2 -288q0 -34 3 -70q2 -18 2 -35.5t-2 -34.5q-3 -34 -14 -66.5t-38 -59.5q-29 18 -44.5 47t-21.5 60.5 t-6 61.5t4 50l-10 567q-8 35 -14.5 73t-11.5 73t-8 62.5t-5 39.5z" />
<glyph unicode="J" horiz-adv-x="1054" d="M82 1008q0 8 9 26.5t24.5 34.5t34 29.5t38.5 13.5q6 0 28 -3t49.5 -6t54 -5t42.5 -2t61.5 5t111.5 17q33 6 54 6h11q23 -2 33 -2q14 0 50 8.5t82 17.5t96 15q25 3 48 3t43 -3q29 -23 15.5 -47t-84.5 -39q2 4 -27 -3t-45 -17q-53 -8 -114.5 -25.5t-131.5 -25.5 q10 -20 23.5 -79t28 -137.5t28.5 -169t24.5 -174.5t15.5 -156q4 -51 4 -85q0 -14 -1 -25q-2 -29 -12 -73t-39 -78q-27 -23 -48.5 -32t-62.5 -9q-25 0 -27.5 -2t-23.5 -2q-23 0 -79 11t-142 32q-23 6 -50.5 19t-51 31.5t-40 39t-16.5 43.5q0 27 13.5 49t42.5 22 q10 0 36.5 -14t56 -31.5t55.5 -32t36 -14.5q18 0 34.5 -4t41.5 -8q41 2 66.5 10t49.5 17q31 20 30 39.5t-1 37.5q0 25 -6 70t-13.5 92t-11.5 91q-2 22 -2 39t2 28l-2 61q-4 4 -5 16.5t-2 26t-4 22.5t-11 9q8 8 1 28.5t1 28.5q-14 14 -13 28.5t-12 51.5q-4 53 -9 85t-5 63 q4 6 0 6t-13.5 -3t-22.5 -5t-26 0h-41t-36 -8l-56 4q-16 -8 -35.5 -6t-35.5 2q-12 0 -33 2t-39 7t-31.5 14t-13.5 24z" />
<glyph unicode="K" horiz-adv-x="952" d="M82 1069q2 29 9 45t24 29q12 0 30.5 6t38.5 6q18 0 45 -17.5t35 -35.5v-66q0 -12 -4 -60t-9 -109.5t-12.5 -125t-13.5 -106.5q5 -52 5 -119v-23q-1 -81 -5 -167t-10 -169t-12 -147q-8 0 -27.5 -4t-42.5 4q-2 12 -20.5 30.5t-20.5 59.5l-8 150q4 35 4 49t-1 28.5t-1 38 t2 76.5l-4 88l4 72q4 0 4 9.5t-1 23.5t-2 30.5t-1 28.5q0 27 -1 47.5t3 46.5q-2 23 -1 31t1 14.5t-1 17.5t-5 40zM254 553q0 2 34 47t81 115.5t97 156.5t83 168q-4 4 -2 11.5t6 16.5t6 16.5t-2 11.5q2 8 7 18t17.5 17.5t36 12.5t60.5 5q16 0 27.5 -15.5t17.5 -36t8 -39 t2 -24.5q-25 -29 -50.5 -77t-54 -106t-58 -123.5t-60.5 -129.5q49 -53 91 -120.5t83 -143.5t86 -157t100 -161q-8 -10 -20 -17t-31 -7q-33 0 -68.5 32.5t-72.5 83t-76 108.5t-73.5 108.5t-67.5 83t-58 32.5q-20 0 -21 -5t-20 -5q-59 0 -83.5 36t-24.5 87z" />
<glyph unicode="L" horiz-adv-x="1077" d="M82 1024q0 8 5 24.5t14.5 34t19.5 30.5t20 13q47 0 68.5 -20.5t29 -49t5.5 -59t-2 -49.5q0 -20 -2 -97t-7 -214q0 -41 -2 -103.5t-3 -127t-3 -117.5t-2 -76q0 -16 8 -27q6 -10 17.5 -16t34.5 -2q25 -10 43 -9t39 -3q23 -4 30.5 -6.5t26.5 -2.5h43h37.5t32.5 5 q16 0 48.5 -3.5t51.5 -3.5q10 0 68.5 -3t125 -9t118.5 -16.5t48 -26.5q6 -31 -22.5 -49t-66.5 -27.5t-74.5 -11.5t-49.5 -2h-42.5t-74.5 1t-76 1h-46h-39t-68 1t-69.5 1h-42.5q-18 0 -21.5 -2t-23.5 2q-14 -2 -25.5 -2h-22.5h-20h-35h-53q-16 20 -21.5 60t-5.5 90.5v109 t-6 117.5q6 61 9 96t3 58.5v42v45.5q0 35 -3 96t-7 123.5t-7 115t-3 68.5z" />
<glyph unicode="M" horiz-adv-x="1236" d="M83 1059.5q-5 21.5 3 30.5q-10 8 -2 22t22 31q32 21 65 21h7q37 -2 55 -3q14 0 34 -24.5t41.5 -62.5t43 -84t39 -87t28.5 -71.5t13 -40.5q4 -6 14.5 -28t22.5 -53.5t26.5 -71.5t26.5 -81q4 -10 11.5 -22.5t11.5 -22.5q6 -12 10 -23q31 -47 57.5 -97t49.5 -97 q37 72 56 143.5t38.5 153.5t48.5 179t82 220q23 53 33 79t22 38q10 10 26.5 28.5t43.5 20.5q20 2 29.5 3t31.5 1q29 -4 45.5 -14t24.5 -25.5t10 -33t2 -33.5q0 -8 -12.5 -66.5t-26.5 -143.5t-26.5 -185.5t-12.5 -190.5q0 -6 3 -38t7.5 -76t8.5 -95t8 -96t7 -78t3 -39 q0 -16 -21.5 -30.5t-37.5 -14.5q-18 0 -30.5 16.5t-29.5 38.5q0 8 -4 29q-2 8 -2 20q-8 61 -15 153.5t-13.5 190t-13.5 186.5t-15 146q-10 -10 -24.5 -50t-30 -95t-32 -118.5t-31.5 -121t-26.5 -101.5t-15.5 -58l-20 -72l-13 -57l-22 -66q-2 -12 -5 -25.5t-24 -13.5 q2 0 -5 4t-16.5 10.5t-16.5 12.5t-7 12q-16 12 -28.5 41t-16.5 39l-25 61q-12 18 -20 42t-14.5 45.5t-12.5 39t-12 23.5l-27 57q-37 55 -63.5 113.5t-49 112t-44 97.5t-45.5 70q-4 -10 -8.5 -58t-7.5 -104.5t-4 -104.5t-1 -60q0 -16 2 -65.5t10 -127.5q6 -78 17.5 -125 t11.5 -86q0 -16 -8 -27.5t-16 -19.5q-27 -14 -50 10q-41 53 -60 130t-27.5 164t-8.5 179.5t-1 175.5t-8 150.5t-28 108.5l-10 96q0 18 -5 39.5z" />
<glyph unicode="N" horiz-adv-x="1081" d="M82 1008v45l10 28q4 29 5 34t9 28q12 23 25.5 25.5t22.5 5.5q8 2 20 6t31 -6l41 -19l26 -16q27 -16 33 -40t23 -50q8 -18 14 -27.5t10 -19t10.5 -20.5t18.5 -32q14 -35 30.5 -58.5t18.5 -31.5q25 -63 77 -156.5t113.5 -187.5t121 -177t100.5 -124q12 4 16 8t4 19 q0 47 -8 95t-18.5 97t-19.5 98.5t-11 98.5q0 43 -5 74.5t-11.5 60.5t-13.5 59.5t-11 73.5l-31 88v68q0 14 9.5 33.5t24.5 38t32.5 30.5t34.5 12q18 0 35.5 -12t33 -29.5t24.5 -38t9 -36.5q0 -55 -8 -114.5t-8 -119.5q0 -47 7 -127t16 -165t17.5 -163.5t8.5 -121.5 q10 -27 13 -52.5t5 -50t3 -47t9 -45.5q0 -35 -20.5 -35h-44.5q-43 0 -100.5 50.5t-122 129t-130 174t-126 185.5t-110.5 165t-83 111q-14 -33 -18 -67.5t-4 -69.5q0 -92 14 -180t14 -178q0 -27 5.5 -46.5t5.5 -58.5q10 -29 12 -62.5t2 -64.5q0 -35 -30 -65.5t-66 -30.5 q-16 0 -16.5 9.5t-16.5 11.5q-18 20 -26.5 60t-12.5 84t-5 87t-1 70q0 10 -2 38.5t-6 69.5q-3 65 -3 125q0 49 2 97q5 104 5 218q0 41 -13.5 66t-19.5 68z" />
<glyph unicode="O" horiz-adv-x="1134" d="M82 547q0 90 16.5 188.5t38.5 167.5q33 68 64.5 112t69.5 74.5t85 51t111 43.5q12 4 55 3t97.5 -5t109.5 -13.5t92 -21.5q51 -18 83 -56t71 -77q4 -16 9 -31.5t13 -26.5q8 -14 19 -24q8 -29 12 -44.5t5 -26.5t2 -23.5t5 -32.5q10 -39 11.5 -62.5t1.5 -62.5 q-4 -18 -8.5 -60t-13.5 -97.5t-23.5 -118t-37 -121t-54 -108.5t-74.5 -79q-53 -37 -91 -56.5t-74 -28.5t-74 -10t-89 -1q-53 0 -85 8t-30 8q-8 0 -33.5 12.5t-56 32t-60.5 41t-48 39.5q-41 45 -64.5 99.5t-36 110t-15.5 107.5t-3 89zM219 541l4 -49q8 -37 15.5 -82 t22.5 -89.5t45 -81t85 -57.5q74 -29 124 -39q29 -6 56 -6q19 0 37 3q43 7 86 32t103 68q31 45 52 90t34.5 95t20.5 107.5t11 124.5q0 31 -4 65t-10 62.5t-12 50t-12 27.5q-18 23 -26.5 36t-17 23.5t-20.5 20.5t-39 27q-51 29 -78.5 42t-68.5 13q-2 0 -22.5 1t-44 2t-44 2 t-22.5 1q-18 0 -39 -13t-37 -26q-53 -43 -88 -85t-57.5 -92t-35 -115.5t-18.5 -157.5z" />
<glyph unicode="P" horiz-adv-x="929" d="M82 965q0 43 39 79.5t88 62.5t95 41t63 15q113 0 191.5 -12t131.5 -32.5t85 -46t50 -52.5q0 -10 5.5 -20.5t10.5 -21.5t7 -25.5t-2 -32.5q-10 -47 -32.5 -84t-49.5 -66t-51.5 -50.5t-40.5 -35.5q-27 -20 -78 -53t-98 -53q-39 -18 -90.5 -40t-120.5 -44 q16 -53 26.5 -104.5t19.5 -107t19 -116t27 -129.5q-16 -35 -32.5 -40t-33.5 -5q-18 0 -26.5 4t-26.5 20q-23 68 -39 134.5t-39 144.5q-14 78 -22 132t-14.5 94t-10.5 74t-10 73q-10 68 -17.5 114.5t-12.5 80.5t-8 57.5t-3 44.5zM236 856q0 -10 3 -36.5t7 -58.5t7 -62.5 t3 -45.5q117 27 195.5 62.5t144.5 70.5q-4 0 7 10.5t26.5 26t32 33.5t22.5 33q10 23 12 43t-18 37q-23 12 -56.5 24.5t-67.5 22.5t-60.5 16t-34.5 6q-98 0 -160.5 -45t-62.5 -137z" />
<glyph unicode="Q" horiz-adv-x="1193" d="M81 484q1 83 9 152t10 97q6 76 44 153t98.5 138t138.5 99q74 36 154 36h8q86 -2 155.5 -17.5t125 -54t96.5 -104t69 -168.5q4 -14 4 -67.5t-5 -118t-15 -122.5t-25 -81q-20 -76 -40.5 -116t-20.5 -62q0 -10 12 -22.5t27.5 -26t28 -24.5t12.5 -19q8 -8 27.5 -32t41 -52.5 t43 -56.5t33.5 -42q-6 -14 -30.5 -30.5t-47.5 -16.5q-4 0 -37.5 29t-73.5 65.5t-76 71.5t-48 49q-27 -12 -51.5 -28.5t-53 -35t-64.5 -36.5t-85 -33q-27 -8 -59 -8q-9 0 -19 1q-43 3 -100 17q-27 6 -54.5 14.5t-55.5 23t-57.5 40t-58.5 68.5q-37 63 -49 150q-11 80 -11 157 v13zM209 475v-28q0 -53 6 -87q23 -53 46.5 -94t55 -68.5t74.5 -42t109 -14.5q20 0 33.5 3t31.5 8q25 4 44.5 17t37.5 24q29 12 38 22t20 23q-16 18 -49 42.5t-67 50t-58.5 50.5t-24.5 43q0 8 6 25.5t17.5 34t25.5 25.5t31 1q37 -18 61.5 -41t43 -44.5t33.5 -40.5t34 -32 q25 -14 24.5 -16t8.5 -2q8 23 18 55.5t20.5 63t18.5 56.5t8 34q4 50 4 94q0 39 -3 73q-7 72 -24.5 125.5t-42 88t-51.5 57.5q-29 29 -48 36t-40 7q-18 0 -31.5 3t-33.5 3q-18 0 -34.5 1t-37.5 1q-10 0 -33.5 -11t-51.5 -31.5t-55.5 -46t-45.5 -52.5q-39 -43 -64.5 -114.5 t-39 -150.5t-15.5 -151z" />
<glyph unicode="R" horiz-adv-x="966" d="M82 923.5q0 16.5 3 35t9 49.5q27 43 44.5 63.5t36 32.5t47 22.5t79.5 30.5q56 17 98 18q14 -1 26 -3q50 -8 69 -7q31 0 73.5 -26.5t82.5 -65.5t69 -80t31 -67q1 -14 1 -28q-1 -72 -19 -126q-22 -64 -49.5 -105.5t-51 -60t-23.5 -16.5l20 -36q21 -36 52 -90t66.5 -119.5 t66.5 -126t51.5 -108t20.5 -65.5t-2 -23.5t-9 -13.5q-10 -6 -21 -16t-48 4q-16 14 -27.5 26.5t-24 24.5t-25.5 29.5t-30 42.5q-25 47 -44 82t-31 57q-16 27 -27 47l-94 178q-10 14 -12.5 22.5t-5.5 14.5t-9 12.5t-22 16.5q-8 2 -34 -2t-48 -8q-23 -4 -35 -5.5t-24.5 -2.5 t-27 -3t-38.5 -4q-6 -35 -7 -66.5t0 -63.5t3 -68.5t4 -81.5q2 -20 2 -29.5v-14.5t2 -11.5t8 -22.5q4 -12 6 -22.5t4 -20.5t2 -21q12 -23 2 -55.5t-18 -36.5q-12 -18 -34.5 -14t-41.5 4q-43 0 -60.5 41t-22.5 92q-3 28 -3 54q0 20 2 39q4 42 4 46v260q-4 47 -5 77t-3 58.5 t-3 65.5t-1 98q-2 35 -3 55.5t-1 37zM233 668q0 -19 15 -33q18 0 31.5 1t24.5 1t23.5 2t30.5 6q33 6 52.5 10t29.5 7q20 4 31.5 8t21 8t18.5 9t28 15q16 25 30.5 35.5t22.5 28.5t7 56t-15 118q0 18 -15.5 38.5t-44 37t-67.5 24.5q-19 4 -39 5q-22 0 -45 -5 q-59 -20 -88 -45.5t-40.5 -64.5t-11.5 -93.5v-129.5v-39z" />
<glyph unicode="S" horiz-adv-x="1038" d="M84 110.5q6 26.5 32.5 46t65.5 23.5q88 -10 129 -16l61.5 -9t34 -3h46.5q16 0 33.5 -1t37.5 7l51 4q18 8 53.5 27.5t69 42t59 46t25.5 41.5q0 43 -32.5 78t-78.5 59.5t-94.5 38t-78.5 13.5h-62q-20 0 -30.5 -1t-28.5 -1q-20 0 -49 -2t-47 -2q-57 0 -94 29.5t-70 84.5 q-9 53 -11 90q0 9 -1 17q0 27 4 49q10 68 39.5 118t64.5 85t67.5 57.5t49.5 32.5q20 10 30.5 15t18.5 9.5t17.5 7.5t25.5 9l59 27q29 10 50.5 13t37.5 7q27 4 57.5 12.5t49.5 8.5q16 0 33.5 2t33.5 -2q23 -6 35.5 -12.5t40.5 -22.5q12 -14 15.5 -37t-5 -44.5t-31 -37.5 t-61.5 -16q-16 0 -44.5 -3.5t-45.5 -1.5q-14 -8 -53 -13t-86 -17q-68 -12 -105.5 -39t-59 -58.5t-31 -62.5t-19.5 -49q4 -29 9 -47.5t30 -42.5q6 -6 21.5 -11.5t34 -7.5t34.5 -3t27 -1h79t106 -7t113.5 -23.5t103.5 -49t75.5 -84t29.5 -127.5q0 -55 -34.5 -111.5t-87 -103.5 t-111.5 -80.5t-109 -42.5q-35 -6 -53 -10t-27.5 -6t-14.5 -3t-13 -3q-18 -4 -47 -6t-51 -2q-20 0 -26.5 -2t-37.5 -2h-65q-53 4 -74 11t-39 11q-51 20 -69.5 49t-12.5 55.5z" />
<glyph unicode="T" horiz-adv-x="1300" d="M86 976q-4 9 -4 23q0 17 6 41l18 37q8 12 9.5 15.5t13.5 19.5q10 10 21.5 19.5t31.5 9.5q8 0 24.5 1t34 3t34 3t24.5 1h82q8 0 48 2t85 5t84 5t49 2q70 0 146.5 2t149.5 5.5t134.5 5.5t102.5 2q20 0 39.5 -17t35.5 -33q12 -12 -11 -24t-62 -25.5t-82 -26t-68 -20.5 q-10 -4 -14 -6t-7 -3t-7.5 -2t-14.5 -3q-12 -4 -20 -6t-17.5 -3t-23 -3t-39.5 -9q-39 -6 -65.5 -7t-51 -2t-52.5 -3t-69 -10l21 -332q8 -53 9 -114.5t9 -110.5l12 -320q-2 -70 -19 -87t-34 -17q-20 0 -37.5 7t-33.5 15q-23 32 -28 54q-2 10 -2 24q0 17 3 41v156q-4 25 -6 41 t-3 32.5t-1 39v57.5q-10 68 -12.5 131t-6.5 124.5t-14 121t-39 118.5q-39 -4 -69.5 -4h-61.5h-64.5t-78.5 -6q-18 0 -42 -1t-41.5 5t-25.5 26z" />
<glyph unicode="U" horiz-adv-x="1071" d="M82 1095.5q0 12.5 4 34.5q8 16 28.5 24.5t43 12.5t42 4h27.5q18 0 27.5 -16t26.5 -47q0 -23 -1 -31t-4 -41l-4 -16t-2 -16q-2 -12 -2 -14.5t-2 -12.5q-2 -16 -5 -36.5t-7 -37.5q-4 -14 -8 -47t-7 -70.5t-5.5 -74.5t-2.5 -60q0 -18 2.5 -58t8.5 -90t14 -101.5t20 -90.5 q25 -47 47.5 -74.5t44 -44t41 -26.5t40.5 -23q33 -6 58 -3t60 12q82 18 122 61t69 123q14 53 23.5 138t15.5 171t8 154.5t2 91.5q0 31 -2 54.5t-6 46t-11.5 48t-17.5 62.5q-2 16 7 28.5t22.5 19.5t28 11t24.5 4q12 0 32.5 -8t41 -24.5t38 -40t25.5 -54.5v-53 q-14 -27 -21 -63.5t-10 -55.5v-114q-8 -8 -13 -41t-8 -78t-4 -95.5t-2 -92.5t-1 -70.5v-30.5t-4 -26.5t-15 -55.5q-31 -72 -57.5 -111.5t-51 -63.5t-49 -34t-51.5 -22t-41 -16.5t-34 -8.5t-36 -5t-44 -1h-28.5t-29.5 -2q-16 2 -23 2t-26 2h-39t-53 10q-18 4 -36.5 10.5 t-41.5 22.5q-29 20 -50 53t-36.5 69t-26 70.5t-16.5 59.5l-39 231q2 29 -2 48.5t-4 54.5q0 12 -1 16t-2 9.5t-2 12.5t-1 23q-5 42 -5 75v11q1 37 5 69t8 58.5t4 55.5q-10 16 -12 39.5t-2 41.5q0 10 -1 17.5t-3 15.5t-2 20.5z" />
<glyph unicode="V" horiz-adv-x="1099" d="M82 1096q2 10 13 22t26.5 23.5t31 18.5t25.5 7q8 0 19.5 4.5t26 4.5t27.5 -6.5t25 -24.5q27 -74 56.5 -174.5t62.5 -212t68 -226t74 -215.5q12 31 17 44.5t8 19.5t4 10t7 17q23 61 33 83.5t18.5 40t16.5 47t29 103.5q6 14 12 29.5t10 29.5q6 16 10 33q14 37 30 95.5 t36 119t49 111.5t72 74q14 6 34.5 1.5t51.5 -22.5q31 -15 41 -41q3 -7 3 -16q0 -20 -18 -45q-94 -156 -158.5 -312.5t-115.5 -298t-94 -256t-92 -184.5q-25 14 -39.5 27.5t-26.5 35t-24.5 55.5t-31 87t-46 131t-70.5 188q-6 16 -21.5 57.5t-34 91.5t-38 103t-35.5 99.5 t-27.5 76t-13.5 33.5q-4 10 -6 15.5t-4 9.5t-4 9l-6 15q-20 27 -26.5 36t-4.5 26z" />
<glyph unicode="W" horiz-adv-x="1720" d="M82 1106q0 35 9 50t24.5 18.5t35 0t35.5 -3.5q33 -14 49.5 -38.5t24.5 -56.5t13.5 -68.5t17.5 -73.5q41 -133 76.5 -226.5t64.5 -165t53.5 -130t44.5 -123.5q20 47 47 96t39 96q20 45 30.5 76t21 61.5t25 68.5t44.5 97l51 125q29 51 50.5 71.5t68.5 20.5q33 0 57.5 -16 t41.5 -37q20 -23 32 -53q18 -41 27.5 -59.5t26.5 -49.5q18 -49 52 -116.5t69.5 -138t65.5 -136t42 -108.5q4 59 9 98t10.5 66.5t10.5 51t12 52.5t14 70t16 102q10 84 25.5 186.5t31.5 200.5q10 37 53 50.5t96 13.5q12 0 19.5 -11.5t12.5 -26t6 -26.5t1 -14q0 -35 -21.5 -85 t-39.5 -116q-35 -164 -66.5 -312.5t-54.5 -242.5q-4 -18 -5 -29.5t-3 -44.5q-4 -10 -4 -19v-19.5t-2 -27t-8 -40.5q-6 -35 -10.5 -51.5t-9.5 -29.5t-12 -28.5t-22 -44.5q-12 -14 -22 -16t-18.5 2t-17.5 10t-19 10q-18 23 -24.5 38.5t-10.5 21.5q-12 25 -17.5 34t-9.5 18 t-12 25.5t-25 57.5q-4 10 -12 22q-6 10 -13.5 24.5t-15.5 31.5q-10 16 -12 21t-10 28q-10 16 -23.5 39.5t-36.5 66.5q-8 16 -26.5 50t-43 78t-54 95.5t-62.5 104.5q-35 -66 -71 -145.5t-69.5 -163.5t-65.5 -166t-60 -150q-6 -23 -12.5 -40t-16.5 -44q-23 -39 -39 -62.5 t-45 11.5q-74 150 -124 259.5t-86 190.5t-59.5 141.5t-41 113.5t-30.5 104t-32 113q-14 47 -31.5 83t-29.5 89z" />
<glyph unicode="X" horiz-adv-x="1064" d="M84 1114q-6 23 5 36t29.5 19.5t38 8.5t29.5 2q29 0 62 -35t65.5 -86t64.5 -112.5t56.5 -116t42 -92.5t21.5 -42q8 4 31.5 40t56 86t69.5 107.5t72 107.5t61.5 85t40.5 41q20 8 26.5 6t23.5 5q10 2 22 0q25 -4 55 -21q31 -23 28 -31t-15 -26q-43 -57 -70 -91t-46 -60.5 t-37.5 -52.5t-46.5 -65t-67.5 -99t-101.5 -155q-12 -10 -10 -24t37 -49q6 -6 22.5 -27.5t37 -50.5t41 -58.5t36.5 -54.5q6 -8 20.5 -26.5t30.5 -40t32.5 -43t26.5 -33.5t14.5 -19.5t7.5 -13.5t7 -12t15 -19l12 -45q2 -23 -5 -34t-17.5 -15t-23 -5t-20.5 -1q-29 0 -62.5 30.5 t-65 70.5t-55.5 76t-30 48q-16 27 -39.5 57.5t-45 58.5t-38 47.5t-20.5 23.5q-4 -4 -23.5 -28t-45 -52.5t-50 -58t-37.5 -44.5q-18 -33 -34 -56t-39 -64q-12 -16 -39 -50t-53.5 -52.5t-46.5 -5.5q-16 11 -16 66q0 11 1 25q2 39 18.5 70t51.5 94q27 49 61.5 94t65.5 82 q30 36 52 66q25 32 25 53q1 25 -25 74q-28 53 -74 128.5t-103.5 168t-112.5 190.5z" />
<glyph unicode="Y" horiz-adv-x="1138" d="M82 1124q0 16 22.5 30.5t38.5 19.5h2q23 0 76 -41q55 -43 124 -104.5t139.5 -126t121.5 -103.5q74 84 118 134t68.5 79.5t37 44t25.5 29t32.5 33l58.5 55.5q18 18 42 18t41.5 -12.5t24.5 -33.5t-3 -48q-10 -25 -18.5 -40.5t-16.5 -27.5t-17.5 -23.5t-23.5 -27.5 q-18 -23 -36.5 -44.5t-64.5 -66.5q-29 -37 -79 -87t-84 -97q-6 -20 -4 -26.5t-5 -28.5q0 -14 -1 -20.5t-2 -11.5t-2 -13.5t-3 -24.5q-4 -47 -4 -96t2 -98q0 -41 -1 -59.5t-1 -37.5v-20q0 -19 -1 -41.5t-1 -41v-20.5l-8 -102l-16 -29q-19 -18 -42 -18q-18 0 -38 12 q-18 20 -23.5 33.5t-9.5 48.5q-4 41 -7 63.5t-6 40t-4.5 39t-1.5 58.5q-2 27 -3 40t-1 19v11.5v17.5q-2 8 0 28.5t0 36.5q-2 12 -3 28.5t-5 45.5q-2 16 -1 19.5t1 21.5q-4 20 -2 26.5t2 28.5q0 18 -2 28.5t-2 39.5q-41 39 -79 69.5t-83 65.5t-98 82t-121 123 q-27 27 -40 54.5t-13 47.5z" />
<glyph unicode="Z" horiz-adv-x="1325" d="M82 80q2 33 14.5 59.5t29.5 49t36.5 40t32.5 31.5q74 88 147 172q63 72 134 153t126 142l79 79t50.5 55.5t52 63.5t86.5 101q-31 0 -55 -1t-53 -5q-18 -2 -49 -5t-49 -1q-33 2 -41.5 1t-13.5 -3t-18 -3t-52 -1q-90 0 -142.5 -1t-82 -2t-44 -1h-26.5q-6 0 -21.5 5t-32 13 t-30 16.5t-19.5 16.5q-10 12 -13 25.5t-7 43.5q4 27 7 33t38 12q11 -1 23 -1q21 0 45 2q15 1 32 2q23 0 47 -3q43 -2 81 -2q53 -1 97 3q56 4 81 5q9 0 14 -1q31 -2 53.5 -3.5t53 -1.5t77.5 1t127 4q23 -2 31 -2.5t11 -0.5t6 1.5t16 1.5q39 0 52 -1.5t20 -1.5h16.5t44.5 3 q102 0 135 -10q15 -4 15 -16q0 -16 -23 -44q-14 -14 -40 -34.5t-53 -45.5q-41 -37 -64.5 -61.5t-43 -45t-37.5 -41t-47 -47.5q-115 -117 -253 -281.5t-335 -379.5q26 -2 52 -2t52 2q34 3 52 3q9 0 14 -1h25.5t37 1t37 1h25.5q18 -2 44 2t44 2q8 0 53 -2t97.5 -4t97.5 -4 t55 -2q25 -2 57.5 -13.5t55.5 -27.5q12 -10 22.5 -17.5t14.5 -17.5q6 -18 0 -31.5t-16.5 -23.5t-24 -16.5t-19.5 -8.5q-18 -6 -28.5 -8t-46.5 0h-23.5h-19h-21.5h-31q-47 1 -84 1h-36q-50 -1 -85.5 -1t-61 -1t-48.5 1h-39h-65.5h-66.5h-40q-19 3 -50 3q-15 0 -33 -1 q-54 -2 -124 -2q-29 0 -44 2t-34 4q-18 2 -37.5 14.5t-23.5 59.5z" />
<glyph unicode="[" horiz-adv-x="694" d="M82 49q2 10 2 23q0 29 3 57.5t7 63.5q4 31 4 77.5t-2 79.5q2 29 3 44.5t3 29.5t3 34.5t1 59.5q-2 43 -2 92t2 92q0 16 1.5 26.5t2.5 22t2 28t3 42.5q2 27 2 39t1 21.5t2 24t3 48.5q4 121 6 188.5t12 76.5q2 6 30 9t64.5 5t73.5 3t56 1q27 0 34 -2t29 -2q10 0 32.5 1t45 3 t40 3t21.5 1q14 0 22.5 -9t11.5 -22.5t3 -30v-28.5q0 -43 -18 -82q-23 -14 -62 -14t-55 -2q-63 -4 -107.5 -8.5t-89.5 -4.5q-10 -16 -12 -63t-4 -127l-8 -94v-17.5t-1 -8.5t-1 -7v-12q-2 -29 -1 -34t-1 -26q-2 -18 -1 -62t2 -94.5t4 -97.5t5 -71l-2 -148l2 -78 q31 -16 53.5 -13t57.5 1q29 0 40 2t37 2q35 4 56.5 7t44.5 3h43t20 -4t5 -12.5t-3 -26.5v-29.5t-2 -33.5t-9 -30.5t-22 -22.5q-12 -6 -34.5 -9.5t-47 -3.5h-50h-44.5h-41h-13h-4h-15q-14 2 -22.5 3t-29.5 -3h-34h-72q-14 0 -21.5 2t-21.5 2q-18 4 -25.5 11.5t-10.5 17.5 t-3 22.5t-2 26.5q-4 27 -2 37z" />
<glyph unicode="\" horiz-adv-x="649" d="M82 1141q0 8 8 16t20.5 14.5t24.5 10.5t19 4q18 0 29.5 -6t23.5 -29q8 -27 12 -47.5t14 -48.5q2 -8 9.5 -24.5t15.5 -35t15.5 -37t13.5 -32.5q47 -127 86 -230.5t61 -181.5q2 -10 10.5 -33.5t16.5 -48t15 -45t7 -22.5q2 -4 5.5 -18.5t3.5 -18.5q2 -8 3 -10.5t5 -14.5 t4 -14t4 -13q2 -6 7 -18t7 -20q4 -14 7 -23.5t8 -19.5l14 -37q4 -14 10 -38t6 -57q0 -10 -3 -23t-10 -24.5t-17.5 -16.5t-22.5 1q-6 -4 -24.5 34t-42 99.5t-50 136t-49.5 146.5q-10 27 -23.5 68.5t-27.5 76.5q-10 23 -29.5 70t-43 105.5t-49 121t-46 119.5t-34 101.5 t-13.5 62.5z" />
<glyph unicode="]" horiz-adv-x="694" d="M82 85.5q0 8.5 6 12.5t20.5 4h43.5q20 0 42.5 -3t57.5 -7q27 0 38 -2t40 -2q35 2 57.5 -1t52.5 13l2 78l-2 148q2 25 5.5 71.5t4.5 97t2 94.5t-1 62q-2 20 -1 25.5t-1 34.5v12t-1.5 7t-1.5 8v18l-8 94q-2 80 -4 127t-12 63q-45 0 -89 4.5t-108 8.5h-23.5t-32.5 2t-33.5 5 t-26.5 9q-18 39 -19 82v28.5t3 30t10.5 22.5t23.5 9q2 0 20.5 -1t41 -3t45 -3t32.5 -1q23 0 29 2t33 2q18 0 55 -1t74 -3t65.5 -5t30.5 -9q10 -8 12 -76t6 -189q2 -35 3 -49t2.5 -23.5t1.5 -21.5t2 -39t3 -43t2 -27.5t2 -21.5t1 -27q2 -43 2 -92t-2 -92q0 -39 1 -59.5 t3 -34.5t3 -29.5t3 -44.5q-2 -33 -2 -80t2 -77q12 -68 12 -121q0 -12 2 -22.5t-2 -37.5q-4 -14 -3 -26.5t-2 -22.5t-11 -17t-27 -12q-12 0 -20 -2t-23 -2h-69h-35q-20 4 -28.5 2t-22.5 -2h-15.5h-4.5h-13h-41h-44h-51.5t-47 3.5t-33.5 9.5q-16 8 -22.5 22.5t-8.5 30.5 t-2 33.5t-2 29.5q-2 18 -2 26.5z" />
<glyph unicode="^" horiz-adv-x="684" d="M93 391q5 21 5 37t8.5 47t20.5 64.5t25.5 66.5t23.5 53l39 89q10 29 22.5 68.5t25.5 80.5t27.5 78t26.5 61q18 29 38 46.5t42 17.5q25 0 47.5 -39t42 -99.5t35 -133t27.5 -141.5t20.5 -123t12.5 -77q2 -18 4 -41.5t1 -46t-6.5 -40t-15.5 -19.5l-43 27q-18 61 -30.5 118.5 t-22.5 113.5t-20.5 112.5t-28.5 117.5l-27 45q-47 -68 -73.5 -132t-52 -127.5t-62.5 -128t-105 -132.5q-12 16 -7 37z" />
<glyph unicode="_" horiz-adv-x="1372" d="M82 12q0 23 27.5 36t48.5 18q59 8 109 9t110 3h79h122.5h143.5t142.5 -1t119.5 -1h73h84q16 0 30.5 -1t30.5 -1q47 0 67.5 -17.5t20.5 -33.5l-8 -70q-16 -18 -39 -27q-14 -4 -43 -6t-59.5 -2t-57 1t-36.5 1h-842q-12 0 -33.5 9.5t-41 22.5t-34 29.5t-14.5 30.5z" />
<glyph unicode="`" horiz-adv-x="681" d="M82 1087v58q14 6 29.5 19.5t31.5 13.5q23 0 61 -27t84 -70t95 -94t92 -101t77 -91.5t48 -61.5q-6 -6 -6 -15t-2 -18.5t-11.5 -13.5t-35.5 2q-16 4 -40 24.5t-38 30.5q-47 45 -98.5 87t-101.5 84t-98 84t-87 89z" />
<glyph unicode="a" horiz-adv-x="1249" d="M82 309q0 88 40 160t105.5 122t148.5 77.5t169 27.5q49 0 89 -14t54 -41q8 -12 20.5 -30.5t22.5 -38t19.5 -38t13.5 -28.5q31 -37 47 -70t31.5 -60.5t36 -50t59.5 -38.5q86 -41 136 -63.5t75 -46t31 -55.5t8 -93q-16 -31 -31.5 -30t-36.5 3q-10 0 -34.5 11.5t-51.5 23.5 q-31 14 -67 33q-10 4 -23 12q-10 4 -23.5 11t-23.5 11q-10 2 -27.5 -1t-40 -11l-45 -16t-41.5 -15q-55 -18 -81.5 -28t-45 -14.5t-42 -5.5t-74.5 -3q-14 0 -50 -6t-53 -6l-106 12q-45 12 -83 44t-65.5 74t-44 90t-16.5 91zM238 328q-2 -23 5 -59t13 -46q16 -27 42 -50 t56 -34q8 -4 26.5 -5t39 -3t39 -2h28.5q109 0 177.5 28t91.5 46q0 10 -9.5 37.5t-27 63.5t-39 77t-45 77t-46 62.5t-38.5 36.5q-29 -2 -79 -10t-100 -31.5t-89 -69t-45 -118.5z" />
<glyph unicode="b" horiz-adv-x="866" d="M82 481q0 29 9 78q5 29 5 67q0 25 -2 54l-6 70q0 39 1 64.5t1 42.5v30.5v27.5q0 35 -5 70q-4 25 -4 53q0 11 1 23q0 29 3 34t7 27q10 16 15.5 25.5t19.5 19.5h35q31 -4 44 -20.5t18 -38t4 -46t3 -42.5q-2 -23 -1 -41t1 -23q-6 -84 -6 -171t-4 -167q2 -4 16.5 -6t33 -2h35 h20.5q129 -2 210.5 -14t131 -40t75 -72t39.5 -105q1 -17 1 -34q-1 -85 -27 -145q-32 -70 -80.5 -111.5t-106 -61t-102.5 -27.5h-102h-53.5t-59.5 -2q-25 0 -40 1t-25.5 3t-17.5 5t-19 7t-19.5 20.5t-21.5 51.5q-6 33 -10.5 58.5t-5.5 49t-2 49t-1 60.5q0 29 -1 50.5t-3 40 t-3 39t-1 48.5zM203 342q2 -23 4 -55.5t4 -64.5t5 -58.5t7 -38.5q18 -2 25.5 -3t15.5 -2t22.5 -2t47.5 -1q16 0 20 1t21 1q18 0 63 8t91 30.5t84 63.5t42 107v8q1 44 -21 72q-24 32 -60.5 51.5t-82 27t-81.5 7.5q-18 0 -41 3t-41 3q-27 0 -40.5 -1t-39.5 -5 q-16 -2 -24.5 -4.5t-12.5 -6.5t-5 -10t-3 -14v-117z" />
<glyph unicode="c" horiz-adv-x="1069" d="M82 236l2 59l16 51q12 25 61.5 83t121 116.5t163.5 101.5q84 39 171 39h16q29 0 32 -9t21 -24l-16 -39l-58 -36q-37 -14 -100 -44t-125.5 -72t-111 -91t-50.5 -105v-6q0 -38 26 -64q28 -28 68.5 -43.5t86.5 -21.5q34 -4 61 -5q9 0 18 1l187 10q37 2 69.5 16.5t65.5 34 t64.5 40t64.5 34.5q41 6 46 -11.5t5 -33.5q0 -49 -40 -89t-97 -68.5t-120.5 -44t-108.5 -15.5h-34t-38.5 1t-33.5 1h-19q-53 0 -111 6q-78 10 -123 31.5t-84 42.5q-41 27 -61.5 66.5t-34.5 87.5z" />
<glyph unicode="d" horiz-adv-x="1105" d="M84 225q-2 12 -2 29t2 38q4 42 8 66q18 33 35.5 56.5t49.5 46t87 46t148 54.5q18 6 29.5 10t20.5 7.5t20.5 5.5t29.5 2l66 12q-8 23 -19.5 62.5t-22 83.5t-17.5 86t-7 67v46.5t4 51.5q2 18 3 27.5t1 15.5v12.5v18.5q0 20 15.5 43t21.5 47q37 10 70 10q25 0 37 -11 t15 -28.5t2 -40t-1 -42.5v-55.5v-49t1 -51.5t5 -62q4 -31 19.5 -84t37 -112.5t45 -115.5t43.5 -95q10 -18 17.5 -51t25.5 -62l9 -28q0 -2 2 -11q2 -6 4 -15t6 -24q16 -23 29.5 -43t33.5 -45l27 -30q20 -18 31.5 -44t7.5 -34q-25 -33 -72 -33q-27 0 -51 18.5t-45.5 44t-40 54 t-33.5 49.5q-25 -25 -53.5 -54.5t-63 -54t-75.5 -42t-90 -17.5h-135q-109 16 -181.5 66.5t-99.5 158.5zM248 249.5q0 -22.5 20 -50.5q4 -10 8.5 -16.5t8.5 -10.5q4 -6 8 -8l31 -23q8 0 24.5 -4t32.5 -4q41 0 79 -1h5q36 0 84 15q14 4 44 20.5t59.5 37t50 42.5t20.5 38 q-4 16 -7 24t-6 14.5t-7.5 13.5t-12.5 23q-10 16 -13 23.5t-5 13.5t-6 12.5t-15 22.5q2 4 -9 19.5t-13 17.5q-18 18 -39 18q-10 -4 -16.5 -6t-12.5 -3t-12 -4t-19 -7q-14 -6 -23 -9t-28 -7q-18 -4 -17 -4.5t-18 -4.5l-24 -8q-10 -4 -18.5 -6t-20.5 -6q-14 -4 -24.5 -9 t-22.5 -10q-10 -4 -15.5 -7t-8.5 -5t-8 -4t-13 -8q-8 -4 -24.5 -18.5t-16.5 -61.5v-49.5z" />
<glyph unicode="e" horiz-adv-x="1245" d="M82 385q0 8 5 17.5t15 13.5q29 20 62 48t45 50q29 47 51.5 86t61.5 72q14 12 49 32.5t79 41t89 37t79 16.5h12q88 0 146 -29q62 -31 80 -80l21 -57q0 -23 -9.5 -53.5t-44.5 -65.5q-68 -66 -126 -93.5t-118.5 -40.5t-125 -22.5t-142.5 -35.5q8 -27 21.5 -56.5t32 -55.5 t44 -43t60.5 -22q27 -4 49.5 -7t46 -3t51 5t66.5 18q63 23 113.5 51.5t93.5 60t84 66.5t86 72q25 20 44 22t32.5 -4t20.5 -17.5t7 -19.5q-41 -68 -115.5 -137.5t-161.5 -125.5t-176 -91t-159 -35h-43q-70 0 -119 16.5t-82 39t-53.5 47t-32.5 40.5q-25 27 -37 51.5t-18 46 t-8 42t-8 43.5l-44 22q-8 8 -16 17.5t-8 19.5zM319 453q20 2 78 14t119.5 30.5t113.5 42t64 46.5q6 12 6 26.5t-20 40.5q-18 12 -31.5 14.5t-30.5 2.5q-16 0 -28 -5.5t-35 -9.5q-104 -55 -158.5 -111.5t-77.5 -90.5z" />
<glyph unicode="f" horiz-adv-x="821" d="M82 467q14 23 27.5 31t40.5 18q23 8 28.5 11t22.5 3q8 0 32.5 4.5t24.5 14.5q0 45 -3 86t-5 80q-1 26 -1 52v27q1 40 7 87q6 43 13 93t24.5 94t50.5 73.5t90 29.5q45 0 76 -7t55.5 -18t46 -22.5t43.5 -19.5q2 -4 12.5 -14.5t22.5 -21.5t21.5 -21.5t9.5 -12.5 q0 -25 -10.5 -35t-26.5 -10t-37.5 4t-42.5 6q-20 8 -32.5 13.5t-21.5 9.5t-20.5 9t-29.5 16h-37q-25 0 -43.5 -33t-28.5 -85t-14 -118q-3 -44 -3 -87q0 -21 1 -42q-2 -25 -2 -47q0 -20 3 -44t13 -44q20 -10 45 -10q16 0 33 4q37 8 81 8h17l127 -6q18 2 29.5 -9.5t15.5 -26.5 t-2 -29.5t-20 -18.5q-41 -12 -62.5 -19.5t-37 -10.5t-30 -4t-38.5 -1q-16 -2 -33.5 -3t-34.5 -1q-2 0 -11 -1t-20.5 -2t-22.5 -2t-15 -3q16 -51 24 -84t13.5 -64t10.5 -64.5t17 -84.5q6 -23 9 -60t-13 -55q-14 -16 -43 -13t-45 13q-10 6 -22.5 25.5t-25.5 64.5t-26.5 120 t-25.5 191q-29 0 -51.5 -9t-51.5 -9q-57 0 -76.5 16.5t-21.5 67.5z" />
<glyph unicode="g" horiz-adv-x="1095" d="M82 307q4 84 49 164t109.5 143.5t137.5 102.5t132 43q9 1 20 1q26 0 58 -4q45 -5 69 -30l62 -59q39 -27 71.5 -81.5t57 -115.5t41 -120.5t20.5 -94.5l47 6h17l18 -2l10 -10l13 -19v-14l-25 -35l-41 -35l-2 -65v-27v-23.5t4 -21.5q-4 -27 -5 -43t-5 -35 q-18 -76 -45 -143.5t-68 -122.5t-100 -95t-141 -58q-51 -10 -93 -19.5t-84 -15.5t-85 -10.5t-97 -4.5q-59 0 -92 11q-31 11 -31 57v6q2 27 31 53.5t82 34.5h150q78 0 155.5 11.5t134.5 58.5q51 43 80 100.5t42.5 109.5t14.5 90t-1 42q-4 8 -15.5 11t-19.5 3q-10 0 -45 -8 t-86.5 -17.5t-114.5 -17.5t-131 -8q-57 0 -112.5 24.5t-97.5 66.5t-67 99q-23 48 -23 101q0 8 1 16zM221 256q4 -31 28.5 -55.5t56.5 -42t68 -25.5t62 -8q41 0 87 11t87 11q94 4 129 30t45 73q-4 78 -30.5 142.5t-63.5 111.5t-77 73.5t-68 30.5q-68 0 -118 -21.5t-83 -50 t-51.5 -55t-24.5 -37.5q-18 -31 -24 -49l-8 -24q-10 -31 -14.5 -57.5t-0.5 -57.5z" />
<glyph unicode="h" horiz-adv-x="823" d="M82 57v21.5t4 30.5l2 57q2 35 3 57.5t1 34.5v48t1 12.5t1 10.5v44v26.5t2 38.5q2 23 4 51q6 98 6 192.5v175.5t2.5 143.5t12.5 97.5q14 41 34.5 46t53.5 5q18 0 34.5 -14.5t20.5 -32.5q2 -12 2 -13.5v-27.5q0 -25 -1 -31t-1 -29l-4 -83l-6 -107q-2 -33 -4 -60.5t-2 -45.5 l2 -144q18 6 46 15.5t57.5 17.5t57 14t44.5 6q66 0 119 -24.5t89.5 -64.5t57 -93t20.5 -110q0 -23 -1 -32t-2 -21.5t-3 -33t-4 -61.5q-2 -6 -2 -14q-2 -8 -2 -17.5t-2 -25.5q-6 -47 -31.5 -83t-75.5 -36q-18 0 -28 13.5t-15.5 32.5t-7.5 40.5t-2 36.5q0 23 -1 26t3 19 q-2 4 -2 10v23l2 55l4 63q-2 23 -2 42.5t-4 33.5q-12 31 -44 48.5t-64 17.5q-41 0 -68 3h-6q-26 0 -68 -22q-10 -6 -20 -14q-10 -6 -19.5 -15.5t-13.5 -19.5q-6 -12 -11 -26.5t-9 -38.5q-4 -18 -5 -27.5t-2.5 -22t-3.5 -33t-4 -63.5q-2 -23 -2 -35t1 -22t2 -22.5l3 -37.5 q-2 -23 -6 -33t-16 -20q-25 -14 -50.5 -11t-47.5 9q-16 8 -21.5 19.5t-7.5 29.5z" />
<glyph unicode="i" horiz-adv-x="380" d="M82 184q0 12 2 32t2 58q2 18 3 28.5t2 17t2 12.5t1 18q0 33 2 56.5t5 44t6.5 41t5.5 49.5q0 23 2 38t3 28.5t2 27.5t1 35q0 10 -12.5 33.5t-12.5 39.5q0 12 8.5 27.5t20.5 30t26.5 24t26.5 9.5q29 0 49.5 -20.5t51.5 -61.5q2 -16 -2.5 -38t-11.5 -52.5t-16 -75.5 t-18 -107l-10 -139q2 -20 1 -31.5t-1 -18.5t-1 -14.5t1 -19.5q2 -14 7 -41t10.5 -55.5t10.5 -55t5 -41.5q-4 -37 -19.5 -46t-44.5 -17q-29 -4 -49 -2t-33.5 20.5t-19.5 58.5t-6 107zM104 1055q0 35 31 65.5t62 30.5q8 0 20 -4q2 0 16.5 -9.5t30 -23.5t25.5 -33t8 -37 q4 -8 1 -21t-11 -26.5t-19.5 -24.5t-23.5 -14q-29 -2 -40 3.5t-38 17.5q-6 2 -16.5 12t-20.5 22.5t-17.5 24t-7.5 17.5z" />
<glyph unicode="j" horiz-adv-x="681" d="M82 -309.5q2 24.5 13 43t38 28.5q12 4 23.5 -2t19.5 -15t13.5 -20.5t5.5 -17.5q0 -29 8 -47t10 -47q25 -41 48.5 -47t49.5 2q41 12 66.5 31.5t40 43t21.5 47t14 44.5l6 57q0 -4 2 0q0 2 1 10.5t-1 24.5l4 127q-4 51 -10 101q-5 38 -5 77q0 13 1 27l-5 49q-2 39 -4 87 t-4 94t-5 85t-7 59q-14 39 -24.5 55.5t-20.5 49.5q-4 23 -3 46.5t7 33.5q8 16 13 19t10 7q16 12 38.5 12.5t44 -12t39 -38t23.5 -62.5q14 -98 23.5 -189.5t14.5 -180.5t7 -179t2 -190q0 -39 -3 -102.5t-18.5 -129t-48 -123t-90.5 -81.5q-51 -23 -108 -33q-16 -3 -35 -3 q-45 0 -104 17q-20 6 -37 21.5t-29 35t-22.5 41t-18.5 37.5q0 27 -3 54.5t-1 52zM348 1010q-6 23 2 50t21 44q12 10 19 17t24 7q10 0 30.5 -4t40 -14t32.5 -26.5t13 -41.5q0 -37 -24.5 -76.5t-67.5 -41.5q-27 0 -43 10t-26.5 24.5t-14.5 30t-6 21.5z" />
<glyph unicode="k" horiz-adv-x="854" d="M81.5 33.5q-1.5 21.5 6.5 56.5q8 135 10 208t2 114v63.5t2 59.5q3 35 3 80q0 22 -1 46.5t-1 51.5q0 55 3 121v118.5t3 61.5q6 68 18 93.5t59 29.5q23 2 44.5 -16.5t25.5 -57.5q-4 -51 -7 -78t-5 -54.5t-3 -66.5t-1 -112q0 -8 1 -30t3 -54q0 -33 1 -72t13 -74l39 15 q53 31 95 62.5t79 55t69 37.5q21 9 42 8q11 0 22 -2l19 -2q16 -10 18 -24.5t-2 -26.5q-8 -35 -36 -61.5t-63.5 -50t-73.5 -49t-67 -56.5q33 -41 64 -82t56.5 -74.5t42 -56t20.5 -25.5q29 -37 56.5 -56t61.5 -42q10 -8 20.5 -12t19 -8t16.5 -12.5t16 -22.5l-14 -14 q-8 -6 -20.5 -15.5t-30 -13.5t-42 -1t-57.5 19q-59 29 -98 73t-68.5 89t-55.5 84t-56 57q-19 12 -38 12q-21 0 -42 -14q-37 -57 -43 -119q-4 -37 -4 -75q0 -26 3 -53q0 -25 -10 -39.5t-24 -21.5t-31.5 -7t-34.5 6q-23 8 -24.5 29.5z" />
<glyph unicode="l" horiz-adv-x="411" d="M123 1032v33.5t5 37t18.5 30t41.5 12.5q12 0 26.5 -11.5t26 -26.5t19.5 -32.5t8 -30.5q0 -57 1 -114.5t1 -116.5v-223l-2 -82v-49v-45v-41v-45q0 -23 2 -43.5t2 -26.5q2 -31 2 -39v-12t2.5 -16.5t8.5 -51.5q2 -53 2 -79.5t-3 -39t-8.5 -15.5t-13.5 -5h-18q-4 0 -14.5 2 t-21.5 9t-21.5 19.5t-16.5 30.5q-12 41 -15 80t-3 79t3 82t3 89q0 23 -2 44.5t-6 49.5q-2 12 -4.5 38t-4.5 54.5t-3 56.5t-1 46q-2 39 -5 89t-5 99.5t-3 93.5t-1 70z" />
<glyph unicode="m" horiz-adv-x="1415" d="M82 618v39.5t10 44.5q18 20 28.5 37t26 24t41 3t72.5 -25q27 -35 29 -59.5t18 -48.5q14 14 47 27.5t69 22.5t69.5 12t52.5 -3q45 -16 70.5 -30.5t41 -32t26.5 -37t30 -45.5q10 10 34.5 43t47.5 51q23 20 42 30.5t39.5 15.5t45 6t55.5 1q49 0 94 -15t82 -39t63.5 -53.5 t40.5 -56.5q8 -16 20.5 -63t23 -108.5t18.5 -130.5t10 -126q4 -29 2 -52t-14 -30q-18 -18 -29.5 -25t-19.5 -6t-19.5 6t-29.5 11q-27 6 -36 20.5t-18 61.5q4 29 0 53.5t-4 53.5q0 61 -4 119.5t-22.5 106.5t-56.5 79.5t-105 42.5q-41 -6 -63.5 -8.5t-36 -7.5t-23.5 -18 t-27 -40q-18 -23 -25 -34t-10.5 -21.5t-7.5 -28.5t-12 -55q-4 -25 -5 -37t-1 -21.5v-24t-2 -44.5q4 -23 6 -35t2 -19.5t-1 -15.5t-1 -20q0 -25 -1 -57.5t-17 -49.5l-80 -2q-18 0 -32.5 11.5t-29.5 23.5q-8 27 -7 41t1 43q4 35 4 48v36v28.5t-1 20.5t-2 23.5t-3 37.5l6 68 q-2 27 -12 52.5t-29.5 47t-47.5 34.5t-66 13q-51 0 -85 -17t-75 -50l-35 -94q-4 -27 -3 -29t1 -4v-16.5t-4 -65.5q2 -23 3 -34t2 -18t1 -12.5v-15.5v-37t1 -24.5t1 -19.5v-21q0 -53 -17.5 -64.5t-64.5 -11.5q-31 0 -48 21.5t-26.5 53t-11.5 66.5q-1 18 -1 33.5t1 30.5 q0 25 2 27.5t3 -0.5l2 -6t1 9v17.5v8.5v7t2 15v38q0 31 4 62t4 59q0 47 -12 89t-12 89z" />
<glyph unicode="n" horiz-adv-x="890" d="M82 610q10 41 28.5 56.5t40 17.5t42 -3t32.5 -5q8 0 13.5 -7t9.5 -17.5t7 -19.5t7 -16q8 0 19.5 8.5t23.5 17.5t23.5 17.5t21.5 8.5l107 16q15 1 29 1q42 0 84 -9q54 -12 95.5 -39t67 -66t29.5 -86q6 -102 17.5 -171.5t19.5 -119.5t10 -84v-11q0 -28 -8 -52l-4 -10 q-6 -16 -16.5 -31.5t-26.5 -15.5q-29 0 -44.5 11t-24.5 29.5t-13 42t-10 48.5q-2 14 -3.5 38.5t-5.5 37.5q2 2 2 17t-1 31.5t-2 32t-1 19.5q0 29 -6 56.5t-16 54.5q-23 63 -45.5 77.5t-53.5 18.5q-31 2 -51 3t-37.5 1t-37 -2t-46.5 -2q-41 -2 -62.5 -18.5t-29.5 -50.5 t-8 -87t4 -127q0 -31 -1 -49t-1 -43q0 -27 4 -51.5t1 -44t-18.5 -30.5t-53.5 -11q-29 0 -42.5 23.5t-19.5 54t-6 62.5v50q0 39 -2 93.5t-6 114t-12.5 116.5t-22.5 104z" />
<glyph unicode="o" horiz-adv-x="923" d="M82 313q0 61 34 133t77 121q-2 0 6 9.5t20 19.5t23 20l10 9q20 25 61 45t88.5 33.5t90.5 17.5q17 2 31 2q21 0 34 -4q45 -12 76 -20.5t57.5 -20.5t51 -29.5t59.5 -48.5q15 -32 29 -72q12 -34 12 -67v-10q-4 -88 -25.5 -164t-65.5 -135.5t-112 -99.5t-162 -52 q-42 -6 -79 -6q-64 0 -112 18q-76 28 -120.5 77.5t-64 111t-19.5 112.5zM227 341q0 -7 2 -18.5t7 -31.5q10 -31 16 -59.5t24.5 -51t56.5 -38t109 -21.5q18 -2 39 3t39.5 13t30.5 14.5t14 8.5q25 23 46.5 51.5t47.5 75.5q10 20 16.5 29.5t11.5 20.5t11.5 31.5t16.5 67.5 q-4 29 -11.5 59.5t-24.5 55t-47 41t-75 16.5q-18 0 -30.5 2t-27 1t-36 -6t-57.5 -17q-31 -14 -48.5 -23.5t-30 -16.5t-21.5 -15.5t-19 -20.5q-10 -23 -17.5 -34t-11.5 -22.5t-9 -24.5t-11 -40q-6 -23 -8.5 -33t-2.5 -17z" />
<glyph unicode="p" horiz-adv-x="1007" d="M82 381l8 45v23l29 57l24 37q18 27 70.5 46t115 32.5t123 21.5t97.5 14q51 8 95 13q19 1 36 1q24 0 45 -3q37 -6 68.5 -23.5t60.5 -52.5q16 -23 27.5 -50.5t17.5 -56.5q8 -33 10 -65q0 -27 -4 -62.5t-20 -70.5q-35 -51 -73 -85t-90 -60.5t-124 -50t-176 -52.5l-88 -21 l-55 -6q-6 -10 -9.5 -16t-4.5 -11t0 -12.5t1 -19.5q0 -37 1 -68.5t4 -68.5t7.5 -82t12.5 -107q8 -41 7 -54t9 -36q8 -23 16.5 -39t12.5 -30.5t6 -28.5t0 -35q-2 -14 -22.5 -22.5t-43.5 -12.5q-29 -6 -63 -8q-29 8 -44 52t-22.5 98.5t-9.5 107.5t-4 82q1 41 1 71v27 q-1 37 -2 63.5t-2 48t-1 56.5q0 25 -6 80t-13.5 117.5t-15.5 122t-12 94.5zM232 303v-14q0 -39 4 -74q6 -41 16 -49q10 -10 37.5 -9t62.5 9t73 19.5t69 23.5q20 6 24 7t31 9q100 41 148.5 64.5t58.5 64.5v133q-6 23 -36 38.5t-50 15.5q-57 0 -100.5 -9.5t-96.5 -25.5 q-45 -14 -104.5 -26.5t-102.5 -41.5q-16 -6 -24.5 -47t-9.5 -88z" />
<glyph unicode="q" horiz-adv-x="1232" d="M174 274.5q0 16.5 6 59.5q4 18 10.5 53t14.5 57q8 39 32.5 90.5t70.5 93.5t115 64q37 13 83 13q38 0 82 -9q63 -12 106 -58t67.5 -107.5t30.5 -130.5q4 -35 4 -67q0 -30 -3 -57q37 16 70.5 32t68.5 16q12 0 23.5 -10.5t17.5 -22.5t7 -23.5t-5 -13.5q-25 -16 -44.5 -27.5 t-39 -24t-43 -27.5t-55.5 -38l-2 -8q-2 -18 -5.5 -31.5t-6.5 -30t-6 -39t-5 -57.5v-26.5t-1 -17.5t-1 -14v-19v-19v-40v-28.5v-30v-40.5q-2 -35 -2 -66q0 -29 2 -56.5t8 -45.5q6 -16 21.5 -27.5t33.5 4.5q59 82 111 144q20 27 42 50t40 40.5t30.5 27t18.5 3.5l25 -27 q2 -8 -2 -24.5t-17 -39.5l-12 -24q-14 -29 -39 -65t-51.5 -73.5t-52 -71.5l-43.5 -58q-27 -41 -48.5 -70t-56.5 -51q-10 -6 -30.5 -4t-42 14t-39 34.5t-19.5 57.5q-2 23 -4 34t-4 50q-2 29 -1 36t-3 26q-2 39 -3 57t-3 49q-2 20 -1 30.5t3 19.5t3 23.5t1 45.5q0 49 3 94 t4 80t-6 57.5t-28 24.5q-9 1 -19 1q-36 0 -73 -12q-47 -16 -94 -22h-45.5t-40 7t-41 23.5t-45.5 51.5q-23 29 -42.5 71t-25.5 85q-4 18 -4 34.5zM334 381q-11 -42 -11 -76q0 -106 103 -147q33 -8 58 -12q12 -3 32 -3q18 0 41 2t43.5 18.5t24.5 26.5t5 30.5t1 49.5v68 t-7.5 68.5t-25.5 65.5t-55 58l-56 11q-39 -2 -85 -37t-68 -123z" />
<glyph unicode="r" horiz-adv-x="880" d="M82 612q0 35 15.5 53.5t38 25.5t48 7h45.5q12 0 22.5 10.5t29 23.5t48 25.5t79.5 14.5h10q50 0 104 -18q60 -20 111 -52t84 -69t33 -68t-24 -44t-52 -13q-29 0 -72 20.5t-86 73.5q-34 25 -72 25h-6q-33 0 -52 -2t-34.5 -8.5t-32 -17.5t-40.5 -30q-25 -41 -31 -55t-10 -33 q-4 -29 -6.5 -41t-2.5 -22t1 -25.5t3 -48.5v-60.5v-43t1.5 -62.5t3.5 -119q4 -45 -8.5 -59t-31 -11t-38 17t-25.5 27q-43 174 -48 320.5t-5 258.5z" />
<glyph unicode="s" horiz-adv-x="794" d="M82 76q0 57 43 67q53 4 86 7.5t80 7.5q20 2 60 16t79 35.5t68.5 46.5t29.5 49q0 27 -36 39t-88 16q-33 3 -67 3q-19 -1 -37 -1q-52 -2 -83 -2q-16 2 -27.5 4.5t-22.5 7.5t-24.5 15t-36.5 31q-20 30 -20 54v6q4 26 14 54q8 14 26.5 36t42.5 45.5t51.5 46t55.5 34.5 q55 25 85 38t55.5 22.5t55.5 17.5t85 21q15 4 29 4q24 -1 47 -11q37 -16 47 -36q6 -14 6 -26.5t-10 -29.5q-6 -10 -12.5 -17t-18.5 -13q-35 -25 -82 -38.5t-95 -25.5t-92 -28.5t-71 -47.5q-10 -12 15.5 -19t70.5 -13.5t101.5 -15.5t105.5 -23.5t82 -38t33 -58.5 q0 -57 -37 -111.5t-91.5 -97.5t-116.5 -72.5t-116 -39.5q-59 -10 -106 -22.5t-103 -12.5q-10 0 -20 8t-19.5 20.5t-15.5 26t-6 21.5z" />
<glyph unicode="t" horiz-adv-x="868" d="M82 598q0 104 102 104q10 0 25.5 3.5t33 7.5t32 5t24.5 -1q18 23 23.5 76t11.5 108t18.5 97t44.5 42q82 0 114 -16q21 -10 21 -37q0 -14 -6 -33q-27 -59 -40 -107t-27 -114q39 0 69.5 3t58 7.5t57.5 8.5t67 6q35 2 49 -4t20 -15q6 -8 4 -22q-47 -41 -88 -62.5t-83 -36 t-87 -24.5t-98 -27q-10 -66 -20 -166q-5 -51 -4 -101q0 -47 4 -93q18 -47 29.5 -75t10.5 -62q0 -37 -26.5 -56.5t-59.5 -19.5q-31 0 -49 29.5t-28.5 70.5t-13.5 83t-3 67q0 14 -1 21t3 26q2 14 3 25.5t6 27.5q9 45 9 92v10v11q0 47 7 92l-8 2q-14 0 -20.5 -2t-35.5 -2 q-16 -2 -31.5 -3t-41.5 -5q-35 6 -55.5 12t-20.5 47z" />
<glyph unicode="u" horiz-adv-x="872" d="M82 306v11q0 63 20 132q14 27 17 30q2 6 4 8l29 39q20 14 40.5 30.5t43.5 16.5t49 -21.5t28 -53.5q0 -25 -14 -45q-8 -10 -14 -19q-10 -16 -26.5 -52t-18.5 -77q0 -18 4 -39.5t10 -40.5q8 -23 16 -41q35 -33 78 -44t74 -11q23 0 48.5 4t47.5 14q35 18 60.5 51t42 70 t23.5 71t7 50q0 31 -18.5 77t-28.5 79q-2 41 15.5 56t39.5 15q33 0 58.5 -24.5t42 -64.5t23.5 -91q5 -40 5 -79v-23q-2 -49 -17 -98.5t-47 -92.5t-83 -76.5t-127 -50.5q-35 -8 -62.5 -13t-55 -7t-56.5 2t-61 14q-66 20 -106 50t-71 100q-18 76 -20 144z" />
<glyph unicode="v" horiz-adv-x="886" d="M82 651l31 51q25 12 35 15.5t36 3.5h27.5t32.5 -21q20 -43 44.5 -110.5t52.5 -139t60.5 -133t71.5 -92.5q16 2 33.5 34t35 81t34 107.5t31 113.5t26.5 99.5t20 62.5q10 14 23 22q10 8 27.5 11.5t41.5 -4.5q27 -8 38.5 -14.5t15.5 -14.5t4 -18.5t2 -24.5 q-29 -100 -66 -205.5t-86 -224.5q2 -4 -5 -19.5t-21 -48.5t-27.5 -67.5t-30 -62t-38 -45t-48.5 -17.5q-25 0 -56.5 31.5t-66 81t-71.5 109.5t-69 118.5t-57.5 108.5t-37.5 77q-16 41 -29.5 71.5t-13.5 63.5z" />
<glyph unicode="w" horiz-adv-x="1210" d="M82 535l10 67q12 16 14.5 25.5t6.5 14.5t15 6t42 1q20 0 36.5 -31.5t32 -78.5t30 -102.5t30.5 -102.5t34.5 -78t43.5 -31h12q20 25 44 84.5t48.5 123t52 111.5t58.5 48q39 0 60.5 -14.5t35.5 -39t23.5 -55t23.5 -63.5q8 -43 19 -80q10 -33 22 -64.5t29 -48.5 q12 -12 23.5 16.5t26.5 81t34.5 120t46.5 133.5q23 53 37 75.5t51 40.5q18 10 27.5 8t29.5 -12l37 -31q9 -12 9 -28q0 -18 -11 -41q-10 -23 -20.5 -37t-19.5 -28.5t-20.5 -32t-23.5 -46.5q-20 -47 -30.5 -71.5t-18.5 -44t-17.5 -45t-27.5 -76.5q-8 -20 -21.5 -63.5 t-31.5 -79.5l-35 -43q-6 -6 -14 -13q-8 -4 -17.5 -8t-21.5 -4q-35 2 -46.5 15.5t-33.5 41.5q-10 27 -16.5 44.5t-12.5 32.5t-12 33.5t-14 49.5q-16 37 -27.5 85t-30.5 83q-18 -23 -36.5 -61.5t-37 -87t-36 -97.5t-35.5 -90q-20 -47 -45 -50t-60 3q-12 2 -27.5 19.5t-31.5 44 t-32.5 59.5t-31.5 65q-66 123 -97.5 208t-51.5 139z" />
<glyph unicode="x" horiz-adv-x="811" d="M82 54.5q-2 23.5 16 51.5l92 111l72 94l62 74q-2 16 -17.5 47t-39 68t-51.5 77.5t-54 77.5q-6 25 -6 51.5t22 51.5q4 6 16.5 11t28 4t32.5 -8t32 -26q29 -35 41 -63.5t23 -53t26.5 -49t50.5 -53.5q35 31 52.5 54.5t31.5 47t32.5 48t55.5 59.5q18 16 28.5 24.5t20.5 11.5 t23 1t33 -8q12 -14 19 -21.5t3 -21t-22.5 -38t-55.5 -69.5q-20 -29 -47 -60.5t-50.5 -64t-39.5 -61.5t-16 -51q0 -39 28.5 -90.5t62.5 -99.5t62.5 -85t28.5 -47q0 -8 -6 -23.5t-16.5 -27.5t-26 -17.5t-33.5 7.5q-39 25 -66.5 57.5t-48 67t-39 68.5t-39.5 61 q-37 -27 -63.5 -64t-50 -71.5t-45 -65.5t-47.5 -45q-29 -8 -54.5 -2t-42 21.5t-18.5 39z" />
<glyph unicode="y" horiz-adv-x="997" d="M82 193q0 18 2 61t5 96t10 112.5t17.5 109t25 83t32.5 37.5q23 4 50.5 6t49 -5t32.5 -29q7 -13 7 -36q0 -13 -2 -28q-23 -27 -35 -70t-19 -91t-9 -94t-2 -81q0 -51 7 -76.5t48 -44.5q45 -2 94 -10q13 -2 27 -2q36 0 72 15q51 22 98 92.5t88 228.5l27 90q10 33 17 58.5 t15.5 43t19.5 26.5t32 11q14 0 26 -4q10 -4 22.5 -8t22.5 -8q8 -4 16.5 -12.5l14.5 -14.5q8 -8 14 -16q8 -17 8 -38q0 -18 -6 -40q-12 -47 -42.5 -121t-72.5 -180.5t-83 -253.5l-39 -125l-15 -51q-16 -57 -21 -72.5t-7 -28t-5 -39t-18 -104.5q-4 -31 -7 -51.5t-7 -46.5 q-6 -41 -25.5 -66.5t-62.5 -25.5q-14 0 -29.5 8t-27 21.5t-17.5 27.5t-4 27q14 68 40 147.5t48.5 158.5t39.5 148.5t17 118.5q-29 -12 -48 -20.5t-37.5 -14.5t-38 -10t-44.5 -6l-51 2q-41 0 -88 12.5t-88 37t-67.5 61t-26.5 84.5z" />
<glyph unicode="z" horiz-adv-x="1101" d="M82 20v17q4 35 43 86t98.5 107.5t131 114.5t141 109.5t128 92.5t91.5 61l-140 -6q-67 -8 -141 -10h-37q-54 0 -104 4q-35 4 -69 30q-30 23 -30 56q0 5 1 10q2 29 14 43.5t29.5 21.5t38 9t40.5 8q18 0 28.5 -1t18 -2t15.5 -2t22 -1l115 -10q53 0 91 2t70 5q33 3 61 4h19 q21 0 46 -1q16 -2 47 -7t43 -16q12 -2 24.5 -15t21.5 -31.5t14 -37t1 -30.5q-12 -35 -48 -72t-77 -70.5t-79.5 -61.5t-57.5 -44l-110 -98q-47 -23 -94.5 -56.5t-77.5 -50.5l65 -2q16 0 23.5 -1t12.5 -1t10 -1t18 -1q14 -2 28.5 3t28.5 3q33 -4 61 -4q14 0 27 1q39 3 75 7 q37 4 75 8q16 1 33 1q25 0 55 -3q2 0 18 -1t33.5 -7t32 -17t14.5 -32q0 -16 -2 -31q-2 -12 -6.5 -26.5t-10.5 -24.5q-10 -16 -26.5 -26.5t-32.5 -16.5q-20 -8 -41 -12q-14 2 -25.5 4t-28 4t-42 2h-68.5q-30 -1 -57 -1t-50 1q-46 2 -86 3t-81 2h-29q-30 0 -65 -1 q-59 -4 -79 -6t-25 -3t-4 -1t-13 2q-35 4 -77 6t-79 10z" />
<glyph unicode="~" horiz-adv-x="1345" d="M84 420q-4 16 0 31.5t14 52.5q18 66 58.5 113t94.5 75.5t119.5 38.5t135.5 2q37 -4 76 -20.5t78.5 -35t80.5 -32.5t84 -14q47 0 75 -1t58 11q18 8 41 24.5t45.5 35t43 38t34.5 33.5q20 14 45 21.5t45.5 4.5t35 -14t16.5 -34q-4 -33 -8.5 -56.5t-11.5 -42t-21.5 -36 t-40.5 -40.5q-39 -31 -62.5 -49t-47 -30.5t-54.5 -22.5t-86 -24q-23 -6 -58.5 -8.5t-72.5 -1.5t-72 6.5t-55 13.5q-29 20 -66 37.5t-73.5 32t-70.5 22.5t-56 8q-43 0 -77 -10t-66 -29.5t-62.5 -47.5t-67.5 -60q-25 -6 -36 -8.5t-15 16.5z" />
<glyph unicode="&#xad;" d="M82 371q0 23 27.5 36t48.5 17q59 8 109 9t110 3h60.5h42t38 -1t51.5 -1h84q16 0 30.5 -1t31.5 -1q47 0 67.5 -17.5t20.5 -33.5l-8 -41q-16 -18 -39 -27q-14 -4 -43 -6t-59.5 -2t-57.5 1t-37 1h-354q-12 0 -33.5 5t-41 13.5t-34 19.5t-14.5 26z" />
<glyph unicode="&#x2000;" horiz-adv-x="642" />
<glyph unicode="&#x2001;" horiz-adv-x="1284" />
<glyph unicode="&#x2002;" horiz-adv-x="642" />
<glyph unicode="&#x2003;" horiz-adv-x="1284" />
<glyph unicode="&#x2004;" horiz-adv-x="428" />
<glyph unicode="&#x2005;" horiz-adv-x="321" />
<glyph unicode="&#x2006;" horiz-adv-x="214" />
<glyph unicode="&#x2007;" horiz-adv-x="214" />
<glyph unicode="&#x2008;" horiz-adv-x="160" />
<glyph unicode="&#x2009;" horiz-adv-x="256" />
<glyph unicode="&#x200a;" horiz-adv-x="71" />
<glyph unicode="&#x2010;" d="M82 371q0 23 27.5 36t48.5 17q59 8 109 9t110 3h60.5h42t38 -1t51.5 -1h84q16 0 30.5 -1t31.5 -1q47 0 67.5 -17.5t20.5 -33.5l-8 -41q-16 -18 -39 -27q-14 -4 -43 -6t-59.5 -2t-57.5 1t-37 1h-354q-12 0 -33.5 5t-41 13.5t-34 19.5t-14.5 26z" />
<glyph unicode="&#x2011;" d="M82 371q0 23 27.5 36t48.5 17q59 8 109 9t110 3h60.5h42t38 -1t51.5 -1h84q16 0 30.5 -1t31.5 -1q47 0 67.5 -17.5t20.5 -33.5l-8 -41q-16 -18 -39 -27q-14 -4 -43 -6t-59.5 -2t-57.5 1t-37 1h-354q-12 0 -33.5 5t-41 13.5t-34 19.5t-14.5 26z" />
<glyph unicode="&#x2012;" d="M82 371q0 23 27.5 36t48.5 17q59 8 109 9t110 3h60.5h42t38 -1t51.5 -1h84q16 0 30.5 -1t31.5 -1q47 0 67.5 -17.5t20.5 -33.5l-8 -41q-16 -18 -39 -27q-14 -4 -43 -6t-59.5 -2t-57.5 1t-37 1h-354q-12 0 -33.5 5t-41 13.5t-34 19.5t-14.5 26z" />
<glyph unicode="&#x2013;" horiz-adv-x="2048" d="M713 506q0 23 27.5 36t47.5 17q59 8 109.5 9t110.5 3h60.5h41.5t37.5 -1t52.5 -1h84q16 0 30.5 -1t31.5 -1q47 0 67.5 -17.5t20.5 -33.5l-9 -41q-16 -18 -39 -26q-14 -4 -42.5 -6.5t-59.5 -2.5t-57.5 1t-36.5 1h-354q-12 0 -34 5.5t-41.5 13.5t-33.5 19.5t-14 25.5z" />
<glyph unicode="&#x2014;" horiz-adv-x="2048" d="M346 602q0 23 27.5 36t48.5 17q59 8 109.5 10.5t109.5 2.5h79h122.5h143.5t142.5 -1t119.5 -1h73h84q16 0 30.5 -1t30.5 -1q47 0 67.5 -17.5t20.5 -34.5l-8 -96l-17 -17t-22 -12q-14 -4 -42.5 -5t-59.5 -1h-57.5h-36.5h-842q-12 0 -33.5 14.5t-41 34t-34 40t-14.5 32.5z " />
<glyph unicode="&#x2018;" horiz-adv-x="544" d="M164 1024v9v9l6 60q2 23 3 43t8 34.5t26.5 22.5t56.5 8q39 0 67.5 -20.5t28.5 -59.5q0 -12 -12 -24t-20 -27q-6 -10 -10.5 -15t-9.5 -12.5t-11 -20.5t-14 -40q-4 -10 -5.5 -15t-2.5 -9t-1 -11.5v-21.5q0 -29 11 -60q6 -16 7 -21t1 -7t1 -4t5 -11q14 -29 23.5 -41 t17.5 -21t19.5 -20t29.5 -36q35 -35 52.5 -54.5t11.5 -33.5q-6 -16 -17.5 -18.5t-21.5 -6.5q-6 -2 -18.5 3t-26 13.5t-27.5 18.5t-23 20q-31 35 -48 59.5t-29.5 48t-24.5 52.5t-33 72l-18 76q0 27 -1 41t-1 20z" />
<glyph unicode="&#x2019;" horiz-adv-x="544" d="M145 625q-6 14 11.5 33.5t52.5 54.5q18 25 29.5 36t19.5 20t16.5 21.5t24.5 40.5q4 8 5 10.5t1 4.5t1 7t7 21q10 31 11 60v21.5t-1 11.5t-3.5 9t-4.5 15q-8 27 -14 40t-11 20.5t-9.5 12.5t-10.5 15q-8 14 -20 26.5t-12 24.5q0 39 28.5 59.5t67.5 20.5q37 0 55.5 -8 t26.5 -22.5t9 -35t3 -42.5l6 -60v-9v-9t-1 -20.5t-1 -40.5l-18 -76q-20 -43 -32.5 -72t-25 -52.5t-30 -48t-47.5 -59.5q-10 -10 -23.5 -20t-27 -18.5t-26 -13.5t-18.5 -3q-10 4 -21 6t-18 19z" />
<glyph unicode="&#x201c;" horiz-adv-x="808" d="M133 1020v9v9l6 60q2 23 3 43t9.5 34.5t27 22.5t57.5 8t66.5 -20.5t27.5 -61.5q0 -10 -12.5 -23.5t-20.5 -25.5q-6 -10 -10 -15t-9.5 -12.5t-11.5 -21.5t-14 -39q-4 -10 -5 -15t-2 -9.5t-1 -11.5v-21q4 -33 12 -60q6 -16 6 -21v-7t1 -4t7 -11q14 -29 22.5 -41t16.5 -21 t19.5 -20t31.5 -36q35 -35 51.5 -54.5t12.5 -33.5q-6 -16 -18.5 -18.5t-20.5 -6.5q-14 -4 -46 15.5t-48 39.5q-31 35 -48.5 59.5t-29.5 48t-24.5 52.5t-32.5 72l-19 75q-2 27 -3 41.5t-1 20.5zM438 1016v9v9l6 60q2 23 3.5 43t8.5 34.5t25.5 22.5t57.5 8t66.5 -20.5 t27.5 -59.5q0 -12 -11.5 -24.5t-19.5 -26.5q-6 -10 -10 -15t-9 -12.5t-11.5 -21.5t-14.5 -39q-4 -10 -5 -15t-2 -9.5t-1 -11.5v-21q0 -29 10 -60q6 -16 7 -21t1 -7t1 -4.5t5 -10.5q14 -29 23.5 -41t18 -21t20 -20t29.5 -36q35 -35 51 -54.5t12 -34.5q-6 -16 -17.5 -18 t-21.5 -6q-6 -2 -18.5 3t-26.5 13t-27.5 18.5t-21.5 20.5q-31 35 -48.5 59.5t-29.5 48t-24.5 52.5t-32.5 72l-19 75q0 27 -1 41.5t-1 20.5z" />
<glyph unicode="&#x201d;" horiz-adv-x="808" d="M119 616q-4 14 12 34t51 55q18 25 29.5 36t20 20t16.5 21.5t24 40.5q4 8 5.5 10.5t1.5 4.5t1 7t7 21q10 31 10 60v21t-1 11.5t-3 9.5t-4 15q-8 27 -14.5 40t-11.5 20.5t-9 12.5t-10 15q-8 14 -19.5 26.5t-11.5 24.5q0 39 27.5 59.5t66.5 20.5t57.5 -8t25.5 -22.5t8 -35 t3 -42.5l7 -60v-9v-9t-1 -20.5t-1 -41.5l-19 -75q-20 -43 -32.5 -72t-25 -52.5t-29.5 -48t-48 -59.5q-8 -10 -21.5 -20.5t-28 -18.5t-26.5 -13t-18 -3q-10 4 -21.5 6t-17.5 18zM422 621q-4 14 12 33.5t51 54.5q20 25 31.5 36t20 20t16.5 21.5t22 40.5q6 8 6.5 10.5t0.5 4.5 t1 7t7 21q8 27 12 60v21t-1 11.5t-3 9.5t-4 15q-8 25 -14.5 39t-11.5 21.5t-9 12.5t-10 15q-8 14 -20.5 26.5t-12.5 24.5q0 39 27.5 59.5t66.5 20.5t57.5 -8t26.5 -22.5t9.5 -35t3.5 -42.5l6 -60v-9v-9t-1 -20.5t-3 -41.5l-19 -75q-20 -43 -32.5 -72t-24.5 -52.5t-29.5 -48 t-48.5 -59.5q-16 -20 -48 -39.5t-46 -15.5q-8 4 -20.5 6t-18.5 19z" />
<glyph unicode="&#x202f;" horiz-adv-x="256" />
<glyph unicode="&#x205f;" horiz-adv-x="321" />
<glyph unicode="&#x25fc;" horiz-adv-x="778" d="M0 0v778h778v-778h-778z" />
</font>
</defs>
</svg>
